<svg width="48" height="48" viewBox="0 0 48 48" fill="none" xmlns="http://www.w3.org/2000/svg">
<g clip-path="url(#clip0_198_610)">
<path d="M34.5 3L36.8895 7.5L42 8.121L38.25 11.5005L39 16.5L34.5 13.6875L30 16.5L30.75 11.5005L27 8.121L32.25 7.5L34.5 3Z" fill="#2069D8" style="fill:#2069D8;fill:color(display-p3 0.1269 0.4134 0.8458);fill-opacity:1;"/>
<path d="M34.0751 19.8735L31.1688 19.1265C30.6478 21.134 29.5436 22.9419 27.9955 24.3221C26.4475 25.7022 24.5251 26.5926 22.4713 26.8806C20.4174 27.1687 18.3243 26.8416 16.4563 25.9407C14.5883 25.0397 13.0292 23.6053 11.976 21.8187C10.9228 20.032 10.4228 17.9733 10.5391 15.9027C10.6555 13.832 11.3829 11.8423 12.6295 10.1848C13.8761 8.52736 15.586 7.27658 17.5432 6.59048C19.5004 5.90438 21.617 5.81374 23.6256 6.33002L24.3741 3.42527C21.4466 2.6649 18.3485 2.91078 15.5777 4.1234C12.8068 5.33603 10.524 7.44498 9.09618 10.1114C7.66836 12.7777 7.17839 15.8467 7.70502 18.8251C8.23165 21.8035 9.74429 24.5184 11.9999 26.5335V45L20.9999 39L29.9999 45V26.5617C31.9919 24.7862 33.4105 22.458 34.0751 19.8735ZM26.9999 39.3941L20.9999 35.3943L14.9999 39.3941V28.575C16.8614 29.5103 18.9155 29.9981 20.9988 29.9997C23.082 30.0013 25.1369 29.5167 26.9999 28.5843V39.3941Z" fill="#2069D8" style="fill:#2069D8;fill:color(display-p3 0.1269 0.4134 0.8458);fill-opacity:1;"/>
</g>
<defs>
<clipPath id="clip0_198_610">
<rect width="48" height="48" fill="white" style="fill:white;fill-opacity:1;"/>
</clipPath>
</defs>
</svg>
