<svg width="48" height="48" viewBox="0 0 48 48" fill="none" xmlns="http://www.w3.org/2000/svg">
<g clip-path="url(#clip0_198_585)">
<path d="M36 3H39V13.5H36V3Z" fill="#1EB0FF" style="fill:#1EB0FF;fill:color(display-p3 0.1269 0.4134 0.8458);fill-opacity:1;"/>
<path d="M37.5 16.5C37.055 16.5 36.62 16.632 36.25 16.8792C35.88 17.1264 35.5916 17.4778 35.4213 17.889C35.251 18.3001 35.2064 18.7525 35.2932 19.189C35.3801 19.6254 35.5943 20.0263 35.909 20.341C36.2237 20.6557 36.6246 20.87 37.061 20.9568C37.4975 21.0436 37.9499 20.999 38.361 20.8287C38.7722 20.6584 39.1236 20.37 39.3708 20C39.618 19.63 39.75 19.195 39.75 18.75C39.75 18.1533 39.5129 17.581 39.091 17.159C38.669 16.7371 38.0967 16.5 37.5 16.5Z" fill="#1EB0FF" style="fill:#1EB0FF;fill:color(display-p3 0.1269 0.4134 0.8458);fill-opacity:1;"/>
<path d="M16.5 36H31.5V39H16.5V36Z" fill="#1EB0FF" style="fill:#1EB0FF;fill:color(display-p3 0.1269 0.4134 0.8458);fill-opacity:1;"/>
<path d="M19.5 42H28.5V45H19.5V42Z" fill="#1EB0FF" style="fill:#1EB0FF;fill:color(display-p3 0.1269 0.4134 0.8458);fill-opacity:1;"/>
<path d="M34.5732 24C33.8022 25.2046 32.8563 26.2877 31.7666 27.2139C30.1604 28.7022 28.5 30.2417 28.5 33H31.5C31.5 31.6209 32.2896 30.825 33.8028 29.4214C35.5738 27.9544 36.9834 26.0993 37.9222 24H34.5732Z" fill="#1EB0FF" style="fill:#1EB0FF;fill:color(display-p3 0.1269 0.4134 0.8458);fill-opacity:1;"/>
<path d="M24.0004 6.00005C26.1088 6.00065 28.1793 6.56099 30.0004 7.6238V4.26125C27.7186 3.26071 25.2234 2.84497 22.7405 3.05164C20.2576 3.25832 17.8655 4.08088 15.7806 5.44489C13.6957 6.8089 11.9838 8.6713 10.7999 10.8635C9.61605 13.0557 8.99754 15.5086 9.00036 18C8.89853 20.1793 9.31598 22.3515 10.2183 24.3378C11.1207 26.324 12.4821 28.0674 14.1904 29.4243C15.7079 30.8262 16.5004 31.6223 16.5004 33H19.5004C19.5004 30.24 17.8342 28.7007 16.2221 27.2109C14.8173 26.1393 13.6975 24.7387 12.9613 23.1325C12.2251 21.5263 11.8951 19.7638 12.0004 18C12.004 14.8186 13.2695 11.7684 15.5191 9.5188C17.7688 7.26915 20.8189 6.0037 24.0004 6.00005Z" fill="#1EB0FF" style="fill:#1EB0FF;fill:color(display-p3 0.1269 0.4134 0.8458);fill-opacity:1;"/>
</g>
<defs>
<clipPath id="clip0_198_585">
<rect width="48" height="48" fill="white" style="fill:#1EB0FF;fill-opacity:1;"/>
</clipPath>
</defs>
</svg>
