<svg width="48" height="48" viewBox="0 0 48 48" fill="none" xmlns="http://www.w3.org/2000/svg">
<g clip-path="url(#clip0_198_595)">
<path d="M39 30L41.1408 32.8542L34.5 40.4444L27.8592 32.8544L30 30H39ZM40.5 27H28.5L24 33L34.5 45L45 33L40.5 27Z" fill="#2069D8" style="fill:#2069D8;fill:color(display-p3 0.1269 0.4134 0.8458);fill-opacity:1;"/>
<path d="M24 41.9995H12V5.99954H24V14.9995C24.0023 15.7945 24.3191 16.5562 24.8812 17.1183C25.4433 17.6804 26.2051 17.9972 27 17.9995H36V22.4995H39V14.9995C39.0054 14.8024 38.9679 14.6064 38.8902 14.4252C38.8125 14.2439 38.6965 14.0816 38.55 13.9495L28.05 3.44954C27.918 3.30303 27.7557 3.18692 27.5744 3.10923C27.3931 3.03154 27.1972 2.99412 27 2.99954H12C11.2051 3.00183 10.4433 3.31864 9.88122 3.88075C9.3191 4.44287 9.0023 5.2046 9 5.99954V41.9995C9.0023 42.7945 9.3191 43.5562 9.88122 44.1183C10.4433 44.6804 11.2051 44.9972 12 44.9995H24V41.9995ZM27 6.59954L35.4 14.9995H27V6.59954Z" fill="#2069D8" style="fill:#2069D8;fill:color(display-p3 0.1269 0.4134 0.8458);fill-opacity:1;"/>
</g>
<defs>
<clipPath id="clip0_198_595">
<rect width="48" height="48" fill="white" style="fill:white;fill-opacity:1;"/>
</clipPath>
</defs>
</svg>
