<svg width="48" height="48" viewBox="0 0 48 48" fill="none" xmlns="http://www.w3.org/2000/svg">
<g clip-path="url(#clip0_198_616)">
<path d="M5.4 33.75C3.9 30.75 3 27.45 3 24C3 12.45 12.45 3 24 3V6C14.1 6 6 14.1 6 24C6 27 6.75 29.7 8.1 32.25L5.4 33.75Z" fill="#2069D8" style="fill:#2069D8;fill:color(display-p3 0.1269 0.4134 0.8458);fill-opacity:1;"/>
<path d="M42.0002 24C42.0002 33.9 33.9002 42 24.0002 42C19.6502 42 15.6002 40.5 12.4502 37.8L21.0002 29.25L18.9002 27L9.1502 36.75C8.5502 37.35 8.5502 38.25 9.1502 38.85C13.0502 42.75 18.4502 45 24.0002 45C35.5502 45 45.0002 35.55 45.0002 24H42.0002Z" fill="#2069D8" style="fill:#2069D8;fill:color(display-p3 0.1269 0.4134 0.8458);fill-opacity:1;"/>
<path d="M26.9999 37.5C26.8499 37.5 26.5499 37.5 26.3999 37.35C25.9499 37.2 25.4999 36.75 25.4999 36.15L24.4499 28.65L27.4499 28.2L28.0499 33.15L31.3499 30.6V22.5C31.3499 22.05 31.4999 21.75 31.7999 21.45L36.5999 16.65C37.9499 15.3 38.8499 13.35 38.8499 11.4V9H36.5999C34.6499 9 32.6999 9.75 31.3499 11.25L26.5499 16.05C26.2499 16.35 25.9499 16.5 25.4999 16.5H17.2499L14.6999 19.8L19.6499 20.4L19.1999 23.4L11.6999 22.35C11.0999 22.35 10.6499 21.9 10.4999 21.45C10.3499 21 10.3499 20.4 10.6499 19.95L15.1499 13.95C15.5999 13.65 16.0499 13.5 16.4999 13.5H24.8999L29.3999 9C31.3499 7.05 34.0499 6 36.7499 6H38.9999C40.6499 6 41.9999 7.35 41.9999 9V11.25C41.9999 14.1 40.9499 16.65 38.9999 18.6L34.4999 23.1V31.5C34.4999 31.95 34.3499 32.4 33.8999 32.7L27.8999 37.2C27.5999 37.35 27.2999 37.5 26.9999 37.5Z" fill="#2069D8" style="fill:#2069D8;fill:color(display-p3 0.1269 0.4134 0.8458);fill-opacity:1;"/>
</g>
<defs>
<clipPath id="clip0_198_616">
<rect width="48" height="48" fill="white" style="fill:white;fill-opacity:1;"/>
</clipPath>
</defs>
</svg>
