<svg width="24" height="25" viewBox="0 0 24 25" fill="none" xmlns="http://www.w3.org/2000/svg">
<g clip-path="url(#clip0_198_529)">
<path d="M17.38 11.29L15.18 9.09C14.9 8.81 14.82 8.42 14.93 8.07C15.3 6.95 15.5 5.75 15.5 4.5C15.5 3.95 15.95 3.5 16.5 3.5H20C20.55 3.5 21 3.95 21 4.5C21 13.89 13.39 21.5 4 21.5C3.45 21.5 3 21.05 3 20.5V17.01C3 16.46 3.45 16.01 4 16.01C5.24 16.01 6.45 15.81 7.57 15.44C7.92 15.32 8.32 15.41 8.59 15.68L10.79 17.88C13.62 16.43 15.94 14.12 17.38 11.29Z" fill="url(#paint0_radial_198_529)" style=""/>
</g>
<defs>
<radialGradient id="paint0_radial_198_529" cx="0" cy="0" r="1" gradientUnits="userSpaceOnUse" gradientTransform="translate(21 21.5) rotate(-135) scale(25.4558 22.1185)">
<stop offset="0.163462" stop-color="#8EB3EB" style="stop-color:#8EB3EB;stop-color:color(display-p3 0.5568 0.7010 0.9230);stop-opacity:1;"/>
<stop offset="0.705005" stop-color="#2069D8" style="stop-color:#2069D8;stop-color:color(display-p3 0.1255 0.4118 0.8471);stop-opacity:1;"/>
</radialGradient>
<clipPath id="clip0_198_529">
<rect width="24" height="24" fill="white" style="fill:white;fill-opacity:1;" transform="translate(0 0.5)"/>
</clipPath>
</defs>
</svg>
