<svg width="24" height="25" viewBox="0 0 24 25" fill="none" xmlns="http://www.w3.org/2000/svg">
<g clip-path="url(#clip0_198_533)">
<path d="M12 2.5C8.13 2.5 5 5.63 5 9.5C5 14.75 12 22.5 12 22.5C12 22.5 19 14.75 19 9.5C19 5.63 15.87 2.5 12 2.5ZM12 12C10.62 12 9.5 10.88 9.5 9.5C9.5 8.12 10.62 7 12 7C13.38 7 14.5 8.12 14.5 9.5C14.5 10.88 13.38 12 12 12Z" fill="url(#paint0_radial_198_533)" style=""/>
</g>
<defs>
<radialGradient id="paint0_radial_198_533" cx="0" cy="0" r="1" gradientUnits="userSpaceOnUse" gradientTransform="translate(19 22.5) rotate(-124.992) scale(24.4131 19.9311)">
<stop offset="0.163462" stop-color="#8EB3EB" style="stop-color:#8EB3EB;stop-color:color(display-p3 0.5568 0.7010 0.9230);stop-opacity:1;"/>
<stop offset="0.705005" stop-color="#2069D8" style="stop-color:#2069D8;stop-color:color(display-p3 0.1255 0.4118 0.8471);stop-opacity:1;"/>
</radialGradient>
<clipPath id="clip0_198_533">
<rect width="24" height="24" fill="white" style="fill:white;fill-opacity:1;" transform="translate(0 0.5)"/>
</clipPath>
</defs>
</svg>
