<svg width="20" height="20" viewBox="0 0 20 20" fill="none" xmlns="http://www.w3.org/2000/svg">
<path d="M10.416 18.7412L10 19.0186L9.58398 18.7412L10 18.1172L10.416 18.7412ZM15.8833 8.23145C15.8111 6.77547 15.2012 5.3936 14.1655 4.35791C13.0608 3.2532 11.5623 2.63281 10 2.63281C8.43771 2.63281 6.93918 3.2532 5.83447 4.35791C4.72977 5.46262 4.10938 6.96115 4.10938 8.52344C4.10938 10.804 5.59374 13.0197 7.22412 14.7412C8.02396 15.5858 8.82642 16.2772 9.42969 16.7578C9.65038 16.9336 9.84433 17.0796 10 17.1948C10.1557 17.0796 10.3496 16.9336 10.5703 16.7578C11.1736 16.2772 11.976 15.5858 12.7759 14.7412C14.4063 13.0197 15.8906 10.804 15.8906 8.52344L15.8833 8.23145ZM17.3853 8.79297C17.2759 11.5675 15.5018 14.0439 13.8647 15.7725C13.0044 16.6809 12.1467 17.4198 11.5049 17.9312C11.1834 18.1873 10.9145 18.3877 10.7246 18.5249C10.6297 18.5935 10.5544 18.6463 10.502 18.6826C10.4757 18.7008 10.4548 18.7148 10.4404 18.7246C10.4333 18.7295 10.4279 18.7336 10.4238 18.7363C10.4219 18.7376 10.4202 18.7384 10.4189 18.7393C10.4183 18.7397 10.4174 18.74 10.417 18.7402L10.4165 18.7407L10 18.1172L9.5835 18.7407L9.58301 18.7402C9.58259 18.74 9.58168 18.7397 9.58105 18.7393C9.57984 18.7384 9.57809 18.7376 9.57617 18.7363C9.57211 18.7336 9.56671 18.7295 9.55957 18.7246C9.54518 18.7148 9.52428 18.7008 9.49805 18.6826C9.44561 18.6463 9.37026 18.5935 9.27539 18.5249C9.08548 18.3877 8.81658 18.1873 8.49512 17.9312C7.85327 17.4198 6.99557 16.6809 6.13525 15.7725C4.44532 13.9881 2.60938 11.4069 2.60938 8.52344C2.60938 6.56332 3.38791 4.68337 4.77393 3.29736C6.15994 1.91135 8.03988 1.13281 10 1.13281C11.9601 1.13281 13.8401 1.91135 15.2261 3.29736C16.6121 4.68337 17.3906 6.56332 17.3906 8.52344L17.3853 8.79297Z" fill="#2069D8" style="fill:#2069D8;fill:color(display-p3 0.1269 0.4134 0.8458);fill-opacity:1;"/>
<path d="M10 5.5L10.1201 5.50244C10.7208 5.52465 11.3046 5.71302 11.8057 6.04785C12.3401 6.40496 12.7565 6.91253 13.0024 7.50635C13.2484 8.10021 13.3129 8.75384 13.1875 9.38428C13.0621 10.0146 12.7528 10.5939 12.2983 11.0483C11.8439 11.5028 11.2646 11.8121 10.6343 11.9375C10.0038 12.0629 9.35021 11.9984 8.75635 11.7524C8.16253 11.5065 7.65496 11.0901 7.29785 10.5557C6.94074 10.0212 6.75 9.39279 6.75 8.75V8H8.25V8.75C8.25 9.09609 8.35265 9.43439 8.54492 9.72217C8.73717 10.0099 9.0104 10.2342 9.33008 10.3667C9.64982 10.4991 10.0019 10.5338 10.3413 10.4663C10.6808 10.3988 10.9926 10.232 11.2373 9.9873C11.482 9.74256 11.6488 9.43078 11.7163 9.09131C11.7838 8.75187 11.7491 8.39982 11.6167 8.08008C11.4842 7.7604 11.2599 7.48717 10.9722 7.29492C10.7204 7.1267 10.4299 7.02716 10.1294 7.00488L10 7H9.25V5.5H10Z" fill="#2069D8" style="fill:#2069D8;fill:color(display-p3 0.1269 0.4134 0.8458);fill-opacity:1;"/>
</svg>
