<svg width="20" height="20" viewBox="0 0 20 20" fill="none" xmlns="http://www.w3.org/2000/svg">
<path d="M9.71897 4.09376L11.2815 2.53126C11.6877 2.12498 12.1701 1.80271 12.7009 1.58283C13.2317 1.36295 13.8007 1.24979 14.3752 1.24979C14.9498 1.24979 15.5187 1.36295 16.0495 1.58283C16.5804 1.80271 17.0627 2.12498 17.469 2.53126C17.8752 2.93754 18.1975 3.41986 18.4174 3.95068C18.6373 4.48151 18.7504 5.05045 18.7504 5.62501C18.7504 6.19957 18.6373 6.76851 18.4174 7.29934C18.1975 7.83016 17.8752 8.31248 17.469 8.71876L14.344 11.8438C13.9377 12.2501 13.4554 12.5724 12.9246 12.7923C12.3937 13.0121 11.8248 13.1253 11.2502 13.1253C10.6757 13.1253 10.1067 13.0121 9.57588 12.7923C9.04505 12.5724 8.56274 12.2501 8.15647 11.8438C7.99096 11.6659 7.90083 11.4309 7.90503 11.188C7.90922 10.9451 8.00742 10.7133 8.17897 10.5413C8.35098 10.3697 8.58279 10.2715 8.82568 10.2673C9.06858 10.2631 9.30365 10.3532 9.48147 10.5188C9.71349 10.7515 9.98915 10.9362 10.2927 11.0622C10.5962 11.1882 10.9216 11.253 11.2502 11.253C11.5789 11.253 11.9043 11.1882 12.2078 11.0622C12.5113 10.9362 12.787 10.7515 13.019 10.5188L16.144 7.39376C16.5903 6.92007 16.8344 6.29117 16.8248 5.64044C16.8151 4.98971 16.5522 4.36835 16.0921 3.90817C15.6319 3.44798 15.0105 3.18517 14.3598 3.17548C13.7091 3.16579 13.0802 3.40998 12.6065 3.85626L11.044 5.41876C10.8661 5.58427 10.6311 5.6744 10.3882 5.6702C10.1453 5.66601 9.91348 5.56781 9.74147 5.39626C9.56992 5.22426 9.47172 4.99244 9.46753 4.74955C9.46333 4.50665 9.55346 4.27159 9.71897 4.09376ZM3.85647 16.1438C4.08849 16.3765 4.36416 16.5612 4.66767 16.6872C4.97119 16.8132 5.29659 16.878 5.62522 16.878C5.95385 16.878 6.27925 16.8132 6.58277 16.6872C6.88629 16.5612 7.16196 16.3765 7.39397 16.1438L8.95647 14.5813C9.1343 14.4157 9.36936 14.3256 9.61226 14.3298C9.85516 14.334 10.087 14.4322 10.259 14.6038C10.4305 14.7758 10.5287 15.0076 10.5329 15.2505C10.5371 15.4934 10.447 15.7284 10.2815 15.9063L8.71897 17.4688C8.3127 17.875 7.83037 18.1973 7.29955 18.4172C6.76872 18.6371 6.19979 18.7502 5.62522 18.7502C5.05066 18.7502 4.48172 18.6371 3.9509 18.4172C3.42007 18.1973 2.93775 17.875 2.53147 17.4688C2.1252 17.0625 1.80292 16.5802 1.58304 16.0493C1.36317 15.5185 1.25 14.9496 1.25 14.375C1.25 13.8004 1.36317 13.2315 1.58304 12.7007C1.80292 12.1699 2.1252 11.6875 2.53147 11.2813L5.65647 8.15626C6.06274 7.74996 6.54505 7.42766 7.07588 7.20776C7.60671 6.98787 8.17565 6.87469 8.75022 6.87469C9.32479 6.87469 9.89374 6.98787 10.4246 7.20776C10.9554 7.42766 11.4377 7.74996 11.844 8.15626C12.0095 8.33409 12.0996 8.56915 12.0954 8.81205C12.0912 9.05494 11.993 9.28676 11.8215 9.45876C11.6495 9.63031 11.4177 9.72851 11.1748 9.7327C10.9319 9.7369 10.6968 9.64677 10.519 9.48126C10.287 9.24852 10.0113 9.06386 9.70777 8.93786C9.40425 8.81186 9.07885 8.747 8.75022 8.747C8.42159 8.747 8.09619 8.81186 7.79267 8.93786C7.48916 9.06386 7.21349 9.24852 6.98147 9.48126L3.85647 12.6063C3.62373 12.8383 3.43907 13.1139 3.31307 13.4175C3.18708 13.721 3.12222 14.0464 3.12222 14.375C3.12222 14.7036 3.18708 15.029 3.31307 15.3326C3.43907 15.6361 3.62373 15.9117 3.85647 16.1438Z" fill="url(#paint0_radial_561_15501)" style=""/>
<defs>
<radialGradient id="paint0_radial_561_15501" cx="0" cy="0" r="1" gradientUnits="userSpaceOnUse" gradientTransform="translate(18.7504 18.7502) rotate(-135) scale(24.7494 21.5046)">
<stop offset="0.163462" stop-color="#8EB3EB" style="stop-color:#8EB3EB;stop-color:color(display-p3 0.5568 0.7010 0.9230);stop-opacity:1;"/>
<stop offset="0.705005" stop-color="#2069D8" style="stop-color:#2069D8;stop-color:color(display-p3 0.1255 0.4118 0.8471);stop-opacity:1;"/>
</radialGradient>
</defs>
</svg>
