<svg width="265" height="32" viewBox="0 0 265 32" fill="none" xmlns="http://www.w3.org/2000/svg">
<path fill-rule="evenodd" clip-rule="evenodd" d="M20.9901 5.21455C22.0686 4.87804 22.852 3.8646 22.852 2.66666C22.852 1.19391 21.6679 0 20.2071 0H11.1086C11.0097 0 10.9121 0.00547365 10.816 0.0161369C4.7892 0.33578 0 5.364 0 11.52C0 17.8823 5.11561 23.04 11.426 23.04C17.7364 23.04 22.852 17.8823 22.852 11.52C22.852 9.19245 22.1674 7.02612 20.9901 5.21455ZM11.426 5.54667C8.15395 5.54667 5.50142 8.22102 5.50142 11.52C5.50142 14.819 8.15395 17.4933 11.426 17.4933C14.6981 17.4933 17.3506 14.819 17.3506 11.52C17.3506 8.22102 14.6981 5.54667 11.426 5.54667Z" fill="white" style="fill:white;fill-opacity:1;"/>
<path d="M4.49639 23.04C2.5256 23.04 1.06486 24.9248 2.11441 26.6066C4.13652 29.8466 7.71504 32 11.7924 32C15.8697 32 19.4483 29.8466 21.4703 26.6066C22.5198 24.9248 21.0591 23.04 19.0883 23.04C17.9025 23.04 16.8697 23.7824 16.0437 24.6404C14.967 25.7585 13.4602 26.4533 11.7924 26.4533C10.1246 26.4533 8.61773 25.7585 7.54107 24.6404C6.71506 23.7824 5.68224 23.04 4.49639 23.04Z" fill="white" style="fill:white;fill-opacity:1;"/>
<path d="M170.477 0.382812C171.276 0.382812 171.964 0.65003 172.506 1.19482C173.051 1.74277 173.314 2.44886 173.314 3.27393V21.2612C173.314 23.6645 172.791 25.635 171.703 27.1309C170.664 28.6245 169.284 29.6982 167.574 30.3472L167.575 30.3477C165.887 31.0152 164.078 31.3472 162.151 31.3472C161.584 31.3472 160.863 31.2764 159.995 31.1401C159.126 31.0036 158.297 30.8395 157.507 30.6479C156.821 30.4816 156.266 30.3225 155.849 30.1694L155.679 30.104L155.668 30.0996C154.814 29.7276 154.166 29.2344 153.784 28.5942L154.147 28.375L154.136 28.3813L153.784 28.5942L153.781 28.5884L153.717 28.4712C153.416 27.882 153.375 27.2454 153.583 26.5889C153.846 25.7394 154.289 25.0932 154.949 24.7285L154.963 24.7202C155.602 24.3993 156.278 24.3683 156.964 24.6128L157.21 24.6924C157.488 24.7873 157.861 24.9273 158.324 25.1094C158.923 25.3448 159.577 25.5552 160.287 25.7402L160.297 25.7432L160.564 25.8159C161.175 25.9746 161.703 26.0498 162.151 26.0498C164.119 26.0498 165.49 25.6521 166.345 24.936C167.2 24.2196 167.64 23.2284 167.64 21.9082V21.085C167.378 21.3411 167.081 21.5944 166.749 21.8442L166.749 21.8438C166.098 22.3548 165.327 22.7894 164.442 23.1509L164.432 23.1553C163.524 23.4975 162.561 23.6675 161.548 23.6675C159.695 23.6675 158.002 23.2358 156.48 22.3687L156.178 22.1895L156.173 22.187C154.58 21.1758 153.324 19.7989 152.406 18.0659L152.779 17.8657L152.773 17.8691L152.406 18.0659L152.404 18.0635L152.237 17.7295C151.428 16.0448 151.029 14.1472 151.029 12.0454C151.029 9.7777 151.483 7.76661 152.406 6.0249C153.265 4.3767 154.411 3.06232 155.844 2.09229L156.135 1.90283C157.706 0.888952 159.461 0.382812 161.387 0.382812C162.557 0.382817 163.64 0.565135 164.631 0.935059C165.605 1.2985 166.451 1.76406 167.162 2.33545C167.344 2.47654 167.516 2.61924 167.679 2.76367C167.763 2.22271 167.985 1.74353 168.349 1.33887L168.448 1.23486C168.987 0.666026 169.674 0.38287 170.477 0.382812ZM261.285 0.787109C262.092 0.787143 262.782 1.0733 263.322 1.64795C263.859 2.19138 264.122 2.87919 264.122 3.67822V20.8569C264.122 23.38 263.646 25.4347 262.65 26.9814L262.651 26.9819C261.694 28.5376 260.393 29.6628 258.753 30.3447C257.139 31.0158 255.34 31.3471 253.362 31.3472C252.482 31.3472 251.549 31.2782 250.568 31.1411C249.58 31.0033 248.749 30.7934 248.085 30.5034C247.232 30.1314 246.584 29.6389 246.2 28.9985L246.197 28.9927L246.133 28.8755C245.834 28.2871 245.792 27.6517 246 26.9961H245.999C246.261 26.1452 246.706 25.4976 247.364 25.1323L247.565 25.4976L247.557 25.4819L247.364 25.1323L247.379 25.1245C248.025 24.8001 248.71 24.7711 249.404 25.0244C249.731 25.1278 250.13 25.2675 250.598 25.4429L251.1 25.6338L251.113 25.6387L250.953 26.0186L250.951 26.0234L251.113 25.6387C251.749 25.9089 252.495 26.0498 253.362 26.0498C254.559 26.0498 255.516 25.8795 256.251 25.5596L256.265 25.5527C256.998 25.268 257.535 24.7765 257.891 24.062L257.898 24.0464C258.213 23.4724 258.41 22.6905 258.469 21.6797C258.413 21.7299 258.358 21.7802 258.301 21.8286L258.299 21.8296L258.163 21.9414C257.474 22.4921 256.665 22.9114 255.741 23.2031C254.753 23.515 253.637 23.6675 252.395 23.6675C250.909 23.6675 249.584 23.3283 248.438 22.6367L248.655 22.2734L248.64 22.2959L248.438 22.6367L248.427 22.6299L248.222 22.4927C247.275 21.8379 246.517 20.9861 245.945 19.9434L245.825 19.7168L245.823 19.7134L246.189 19.5298L246.202 19.5229L245.823 19.7134C245.201 18.461 244.894 17.0467 244.894 15.481V3.67822C244.894 2.87492 245.161 2.18394 245.701 1.63916L245.702 1.63965C246.241 1.07056 246.928 0.787135 247.731 0.787109C248.534 0.787109 249.221 1.07066 249.759 1.63965L249.76 1.63916C250.302 2.18394 250.566 2.87492 250.566 3.67822V14.0259C250.566 15.73 250.935 16.8233 251.558 17.4321C252.235 18.0404 253.194 18.3701 254.488 18.3701C255.368 18.3701 256.082 18.2064 256.647 17.9023L256.752 17.8384C257.271 17.509 257.676 17.0537 257.97 16.4629L257.97 16.4634C258.283 15.8077 258.449 15 258.449 14.0259V3.67822C258.449 2.87937 258.711 2.19181 259.247 1.64844L259.247 1.64795C259.787 1.07321 260.478 0.787109 261.285 0.787109ZM258.254 24.2446L258.264 24.2495L258.073 24.1436L258.254 24.2446ZM43.9509 0.382812C44.7503 0.382812 45.4379 0.65003 45.98 1.19482C46.5252 1.74277 46.7878 2.44885 46.7878 3.27393V20.3721C46.7878 21.1752 46.5224 21.8742 45.9883 22.4424L45.98 22.4517L45.9795 22.4512C45.4374 22.9958 44.7502 23.2632 43.9509 23.2632C43.1518 23.2632 42.4645 22.9959 41.9224 22.4512L41.9135 22.4429L41.914 22.4424L41.8166 22.3345C41.5521 22.0256 41.3633 21.6803 41.2483 21.3032C41.0434 21.4847 40.8224 21.6654 40.5851 21.8442C39.9063 22.3557 39.1076 22.7909 38.1939 23.1528L38.187 23.1553C37.2765 23.4984 36.2871 23.6675 35.2232 23.6675C33.2974 23.6675 31.5431 23.1753 29.971 22.188L29.9666 22.1851L29.6768 21.9912C28.2467 21.0001 27.1018 19.689 26.2421 18.0659L26.6155 17.8657L26.6111 17.8682L26.2421 18.0659L26.2381 18.0586L26.0763 17.7246C25.2926 16.0411 24.9053 14.1452 24.9053 12.0454C24.9053 9.77974 25.3455 7.77007 26.2396 6.0293L26.2406 6.02734L26.4162 5.70215C27.3115 4.0992 28.4814 2.82963 29.9277 1.90479C31.4717 0.890166 33.1867 0.382812 35.0623 0.382812C36.2582 0.382818 37.3666 0.564624 38.3834 0.933594C39.3801 1.29526 40.2494 1.75819 40.9851 2.32568C41.0608 2.38207 41.1351 2.43915 41.2075 2.49609C41.3161 2.06368 41.5204 1.6755 41.824 1.33887L41.9224 1.23486C42.4613 0.666138 43.1482 0.382835 43.9509 0.382812ZM85.9793 0.382812C86.7786 0.382824 87.4662 0.650042 88.0083 1.19482C88.5534 1.74275 88.8157 2.44894 88.8157 3.27393V20.3721C88.8157 21.1751 88.5506 21.8742 88.0167 22.4424L87.7087 22.1504L87.7102 22.1519L88.0167 22.4424L88.0083 22.4517L88.0078 22.4512C87.4658 22.9959 86.7786 23.2632 85.9793 23.2632C85.2299 23.2632 84.5787 23.0285 84.0536 22.5503L83.9502 22.4512L83.9419 22.4429L84.2484 22.1519L84.2494 22.1504L83.9419 22.4429C83.6262 22.1069 83.4052 21.7246 83.2767 21.3027C83.0717 21.4843 82.8509 21.6653 82.6135 21.8442C81.9348 22.3557 81.1357 22.7909 80.2218 23.1528L80.2154 23.1553L80.0712 22.7686L80.0663 22.7568L80.2154 23.1553C79.3048 23.4984 78.3151 23.6675 77.251 23.6675C75.3254 23.6674 73.5712 23.1752 71.9994 22.188L71.9944 22.1851C70.4287 21.1734 69.1868 19.7972 68.2699 18.0659L68.6424 17.8667L68.6375 17.8691L68.2699 18.0659L68.2665 18.0586L68.1046 17.7246C67.3208 16.0411 66.9336 14.1452 66.9336 12.0454C66.9336 9.77974 67.3735 7.77007 68.2675 6.0293L68.2689 6.02734L68.4441 5.70215C69.3394 4.09909 70.5097 2.82967 71.9561 1.90479C73.4999 0.890286 75.2149 0.382831 77.0902 0.382812C78.2864 0.382812 79.3951 0.56457 80.4117 0.933594C81.4087 1.29527 82.2776 1.75817 83.0135 2.32568L83.2354 2.49658C83.3439 2.06402 83.5482 1.6756 83.8518 1.33887L83.9502 1.23486C84.4892 0.666061 85.1763 0.382812 85.9793 0.382812ZM145.015 0.382812C145.814 0.382812 146.502 0.65003 147.044 1.19482C147.589 1.74277 147.852 2.44888 147.852 3.27393V20.3721C147.852 21.1751 147.586 21.8742 147.052 22.4424L146.744 22.1504L146.746 22.1519L147.052 22.4424L147.044 22.4517L147.043 22.4512C146.501 22.9958 145.814 23.2632 145.015 23.2632C144.216 23.2631 143.528 22.9959 142.986 22.4512L143.285 22.1504L142.977 22.4424C142.662 22.1066 142.441 21.7249 142.312 21.3032C142.107 21.4847 141.886 21.6654 141.649 21.8442C140.97 22.3557 140.172 22.7909 139.258 23.1528L139.251 23.1553C138.34 23.4984 137.351 23.6675 136.287 23.6675C134.361 23.6675 132.607 23.1752 131.035 22.188L131.031 22.1851C129.465 21.1734 128.223 19.7971 127.306 18.0659L127.679 17.8657L127.673 17.8691L127.306 18.0659L127.302 18.0586L127.14 17.7246C126.357 16.0411 125.969 14.1452 125.969 12.0454C125.969 9.77974 126.41 7.77007 127.304 6.0293L127.305 6.02734L127.48 5.70215C128.375 4.09909 129.545 2.82967 130.992 1.90479C132.536 0.890202 134.251 0.382812 136.126 0.382812C137.322 0.382831 138.431 0.564611 139.447 0.933594C140.444 1.29527 141.313 1.75816 142.049 2.32568L142.271 2.49658C142.39 2.02264 142.624 1.60173 142.977 1.24365L143.081 1.13916C143.605 0.634294 144.258 0.382849 145.015 0.382812ZM186.456 0.382812C187.885 0.382812 189.232 0.678538 190.496 1.27148C191.778 1.85927 192.906 2.67133 193.879 3.70508C194.856 4.71501 195.623 5.89225 196.178 7.2334H196.177C196.764 8.58025 197.056 10.0106 197.056 11.52V11.5376L197.046 11.6792C196.984 12.3801 196.681 12.9698 196.14 13.4229C195.579 13.8925 194.918 14.1279 194.179 14.1279H181.429C181.565 14.6293 181.753 15.0873 181.992 15.5034C182.573 16.4404 183.297 17.1537 184.165 17.6538C185.069 18.1325 186.019 18.3701 187.019 18.3701C187.994 18.3701 188.744 18.2901 189.28 18.1426C189.844 17.988 190.269 17.8142 190.57 17.6294L190.85 17.4517C191.122 17.2814 191.373 17.1333 191.603 17.0073L191.616 17L191.795 17.3604L191.805 17.3804L191.805 17.3799L191.616 17C192.143 16.7355 192.664 16.5913 193.173 16.5913C193.87 16.5914 194.468 16.836 194.931 17.333L194.93 17.3335C195.4 17.81 195.647 18.3837 195.647 19.0381C195.647 19.9308 195.181 20.6991 194.371 21.3428L194.372 21.3433C193.622 21.9801 192.593 22.5272 191.307 22.9951L191.162 22.5947L191.161 22.5952L191.298 22.998C189.995 23.4443 188.647 23.6675 187.261 23.6675C184.922 23.6675 182.865 23.1833 181.102 22.1992L181.095 22.1953C179.477 21.2509 178.196 19.9945 177.26 18.4302L177.077 18.1133L177.074 18.1089C176.152 16.3964 175.696 14.4658 175.696 12.3281C175.696 9.84656 176.19 7.70833 177.2 5.93262L177.201 5.93115C178.227 4.14763 179.565 2.77056 181.217 1.81396C182.861 0.861833 184.61 0.382815 186.456 0.382812ZM233.989 0.382812C235.545 0.382812 236.913 0.547431 238.087 0.884277C239.28 1.21925 240.236 1.70388 240.918 2.36035C241.638 2.99913 242.014 3.79562 242.014 4.729C242.014 5.35876 241.825 5.95193 241.46 6.50098L241.455 6.51074L241.129 6.2793L241.108 6.26514L241.453 6.51074C241.044 7.0948 240.437 7.37791 239.7 7.37793C239.297 7.37793 238.929 7.3337 238.606 7.23584L238.469 7.19043L238.447 7.18213L238.425 7.17139L238.314 7.11328C238.06 6.97507 237.825 6.81272 237.611 6.62598C237.424 6.461 237.196 6.30316 236.924 6.15381L237.126 5.78027L237.125 5.77979L236.907 6.14502C236.713 6.02748 236.365 5.9157 235.819 5.8374L235.879 5.4165L235.878 5.4248L235.819 5.8374L235.797 5.83398L235.429 5.76465C235.091 5.70648 234.842 5.68018 234.674 5.68018C233.369 5.68018 232.284 5.96125 231.399 6.50342L231.399 6.50391C230.528 7.05407 229.856 7.80293 229.38 8.75928L229.001 8.56836L229.016 8.57666L229.38 8.75928L229.378 8.76367L229.292 8.93945C228.875 9.82763 228.66 10.8598 228.66 12.0454C228.66 13.2763 228.903 14.3645 229.375 15.3193L229.471 15.4927C229.962 16.3462 230.605 17.0282 231.399 17.5459C232.263 18.0923 233.258 18.3701 234.39 18.3701C235.045 18.3701 235.599 18.3303 236.051 18.2544C236.494 18.1801 236.846 18.0724 237.117 17.9399C237.476 17.7346 237.79 17.5193 238.064 17.2939C238.468 16.9631 239.023 16.834 239.66 16.834C240.455 16.834 241.118 17.0993 241.587 17.667L241.588 17.6665C242.04 18.1854 242.254 18.8281 242.254 19.5635C242.254 20.4194 241.772 21.1513 240.961 21.7632L240.706 21.4219L240.705 21.4224L240.71 21.4287L240.961 21.7632L240.952 21.769L240.799 21.876C240.019 22.4028 239.029 22.83 237.844 23.1665L237.839 23.168C236.591 23.502 235.24 23.6675 233.787 23.6675C231.603 23.6675 229.686 23.1661 228.055 22.1479L228.049 22.1455C226.529 21.1714 225.33 19.8751 224.451 18.2637L224.279 17.937L224.277 17.9326L224.121 17.5996C223.363 15.9237 222.987 14.0701 222.987 12.0454C222.987 9.7777 223.441 7.76661 224.365 6.0249L224.367 6.02246C225.312 4.26071 226.61 2.88263 228.26 1.89844L228.579 1.71436C230.183 0.823986 231.988 0.382815 233.989 0.382812ZM62.7766 0.382812C63.6663 0.382836 64.4383 0.638521 65.062 1.17139C65.7003 1.69336 66.0554 2.34406 66.0554 3.1123C66.0554 4.0668 65.8108 4.85543 65.2288 5.37158L64.9484 5.05176L64.9479 5.05225L65.2175 5.38086C64.6941 5.81402 64.1049 6.04391 63.4605 6.04395C62.9681 6.04395 62.5025 5.96377 62.0677 5.80029L61.8832 5.7251L61.8733 5.72119L62.05 5.34131L62.0524 5.33545L61.8733 5.72119C61.5376 5.56385 61.1317 5.47803 60.6448 5.47803C60.2345 5.47805 59.8002 5.5808 59.338 5.80078L59.1565 5.41602L59.1604 5.4248L59.338 5.80078L59.3287 5.80518L59.1727 5.88086C58.8117 6.07 58.4567 6.35373 58.1104 6.74414C57.7469 7.1839 57.4349 7.74417 57.1805 8.43408C56.9606 9.07693 56.845 9.8602 56.845 10.7925V20.3721C56.845 21.1752 56.5796 21.8742 56.0455 22.4424L56.0371 22.4517L56.0366 22.4512C55.4946 22.9958 54.8073 23.2632 54.0081 23.2632C53.209 23.2631 52.5216 22.9959 51.9795 22.4512L52.2787 22.1504L52.2772 22.1519L51.9795 22.4512L51.9707 22.4429L51.9712 22.4424L51.8742 22.3345C51.4049 21.7865 51.1717 21.125 51.1716 20.3721V3.67822C51.1717 2.92512 51.4053 2.2709 51.8811 1.74316L51.9795 1.63916C52.5185 1.07039 53.2053 0.787147 54.0081 0.787109C54.8109 0.787109 55.4977 1.07052 56.0366 1.63916C56.4161 2.02054 56.6599 2.47376 56.7722 2.98682C56.8327 2.91635 56.8951 2.84741 56.9586 2.77979L57.1535 2.58057C57.6143 2.12679 58.1207 1.74773 58.6723 1.44531C59.2952 1.07711 59.9606 0.807557 60.6669 0.637207C61.3685 0.467969 62.0721 0.382812 62.7766 0.382812ZM105.126 0.382812C107.16 0.382812 108.774 0.809737 109.899 1.73145C111.017 2.62597 111.772 3.82077 112.169 5.29639L112.245 5.56445C112.61 6.91372 112.79 8.40156 112.79 10.0244V20.3721C112.79 21.1752 112.524 21.8742 111.99 22.4424L111.982 22.4517L111.981 22.4512C111.439 22.9959 110.752 23.2632 109.953 23.2632C109.154 23.2632 108.466 22.9959 107.924 22.4512L107.915 22.4429L107.916 22.4424L107.819 22.3345C107.349 21.7866 107.116 21.1249 107.116 20.3721V10.0244C107.116 9.17355 107.001 8.4266 106.778 7.77881L107.177 7.63916L107.171 7.64111L106.778 7.77881L106.772 7.76025L106.735 7.6416C106.539 7.05713 106.202 6.59626 105.722 6.24561C105.233 5.88812 104.49 5.68018 103.437 5.68018C102.423 5.68018 101.589 5.88363 100.917 6.26855C100.257 6.66185 99.748 7.1862 99.3831 7.84619C99.0465 8.47669 98.8734 9.19924 98.8734 10.0244V20.3721C98.8733 21.1751 98.6077 21.8742 98.0738 22.4424L97.7658 22.1504L97.7673 22.1519L98.0738 22.4424L98.0655 22.4517L98.065 22.4512C97.5229 22.9959 96.8357 23.2632 96.0364 23.2632C95.287 23.2632 94.6358 23.0286 94.1107 22.5503L94.0074 22.4512L93.999 22.4429C93.4651 21.8747 93.2 21.1751 93.2 20.3721V3.67822C93.2 2.9252 93.4332 2.27087 93.909 1.74316L94.0074 1.63916C94.5464 1.0703 95.2334 0.787111 96.0364 0.787109C96.8393 0.787109 97.526 1.07047 98.065 1.63916C98.5087 2.08512 98.7676 2.62914 98.8468 3.25244C99.261 2.80602 99.7287 2.38922 100.249 2.00244C100.9 1.51923 101.632 1.1371 102.442 0.85498L102.599 0.797852C103.385 0.520054 104.228 0.382824 105.126 0.382812ZM212.16 0.382812C214.192 0.38284 215.805 0.808797 216.93 1.72852L217.135 1.8999C218.144 2.77595 218.833 3.9167 219.206 5.30566H219.205C219.619 6.72282 219.824 8.29707 219.824 10.0244V20.3721C219.824 21.1751 219.558 21.8742 219.025 22.4424L219.015 22.4517L219.015 22.4512C218.473 22.9958 217.786 23.2632 216.987 23.2632C216.237 23.2631 215.587 23.0285 215.062 22.5503L214.958 22.4512L214.949 22.4429L215.242 22.166L215.257 22.1504L214.949 22.4429C214.416 21.8747 214.15 21.1752 214.15 20.3721V10.0244C214.15 9.27985 214.062 8.61493 213.89 8.02637L213.811 7.77881L213.806 7.76025L213.768 7.6416C213.573 7.05714 213.237 6.59625 212.756 6.24561C212.268 5.88812 211.523 5.68018 210.472 5.68018C209.454 5.68018 208.619 5.88449 207.946 6.271C207.291 6.663 206.783 7.18461 206.42 7.84082L206.421 7.84131C206.082 8.47292 205.908 9.19717 205.908 10.0244V20.3721C205.908 21.1752 205.641 21.8742 205.108 22.4424L204.799 22.1494L204.806 22.1562L205.108 22.4424L205.099 22.4517L205.098 22.4512C204.556 22.9957 203.87 23.2631 203.071 23.2632C202.321 23.2632 201.671 23.0284 201.146 22.5503L201.042 22.4512L201.033 22.4429L201.336 22.1562L201.342 22.1499L201.033 22.4429C200.5 21.8747 200.234 21.1752 200.234 20.3721V3.67822C200.234 2.87934 200.497 2.19182 201.034 1.64844L201.033 1.64795C201.573 1.07323 202.264 0.787109 203.071 0.787109C203.878 0.787164 204.568 1.07329 205.108 1.64795L205.107 1.64844C205.546 2.09276 205.802 2.63319 205.881 3.25244C206.295 2.8061 206.762 2.38917 207.283 2.00244C207.933 1.51935 208.665 1.13708 209.476 0.85498L209.633 0.797852C210.42 0.519997 211.263 0.382812 212.16 0.382812ZM120.238 16.834C121.085 16.834 121.796 17.0688 122.301 17.5996C122.838 18.1075 123.074 18.8273 123.074 19.6846V20.3721C123.074 21.233 122.836 21.9601 122.307 22.4917C121.8 23.0014 121.085 23.2226 120.238 23.2227H119.715C118.865 23.2227 118.146 23.0008 117.615 22.5015L117.596 22.4819C117.099 21.9493 116.878 21.2258 116.878 20.3721V19.6846C116.878 18.8328 117.098 18.1151 117.606 17.6055C118.135 17.0737 118.858 16.834 119.715 16.834H120.238ZM191.307 22.9951L191.298 22.998L191.162 22.5947L191.307 22.9951ZM142.986 22.4512L142.977 22.4424L143.285 22.1504L142.986 22.4512ZM218.931 22.3662L218.733 22.166L218.717 22.1504L218.931 22.3662ZM45.7684 22.2388L45.6823 22.1519L45.6803 22.1504L45.7684 22.2388ZM55.8256 22.2388L55.7395 22.1519L55.7375 22.1504L55.8256 22.2388ZM111.77 22.2388L111.684 22.1519L111.682 22.1504L111.77 22.2388ZM35.8264 5.68018C34.7496 5.68019 33.8141 5.9559 33.0047 6.49805C32.1878 7.0454 31.5394 7.79259 31.0608 8.75146L30.9786 8.93262C30.5805 9.84816 30.3774 10.8833 30.3774 12.0454C30.3774 13.2536 30.6069 14.3334 31.0578 15.2925C31.5367 16.2542 32.186 17.0037 33.0047 17.5522C33.814 18.0945 34.7497 18.3701 35.8264 18.3701C36.932 18.3701 37.8807 18.0935 38.6884 17.5522C39.5055 17.0049 40.14 16.2574 40.592 15.2988L40.9644 15.4761H40.9654L40.592 15.2988L40.5959 15.2905C41.073 14.3316 41.3157 13.2528 41.3157 12.0454C41.3157 10.8864 41.1018 9.85396 40.6825 8.94043L40.5959 8.75928L40.592 8.75146L40.9684 8.57227L40.9743 8.56885L40.592 8.75146C40.14 7.79282 39.5055 7.04544 38.6884 6.49805C37.8807 5.9568 36.9321 5.68018 35.8264 5.68018ZM77.8543 5.68018C76.7775 5.68021 75.8421 5.95589 75.0326 6.49805C74.2157 7.04543 73.5673 7.79254 73.0887 8.75146L73.0065 8.93262C72.6085 9.84814 72.4058 10.8833 72.4058 12.0454C72.4058 13.2536 72.635 14.3334 73.0857 15.2925C73.5646 16.2542 74.2139 17.0037 75.0326 17.5522C75.8421 18.0946 76.7776 18.3701 77.8543 18.3701C78.9601 18.3701 79.9089 18.0935 80.7168 17.5522C81.5339 17.0048 82.1686 16.2575 82.6203 15.2988L82.6243 15.2905C83.1011 14.3316 83.3436 13.2528 83.3436 12.0454C83.3436 10.8865 83.1301 9.85395 82.7109 8.94043L82.6243 8.75928L82.6203 8.75146L82.9967 8.57227L83.0021 8.56885L82.6203 8.75146C82.1686 7.79285 81.5339 7.04544 80.7168 6.49805C79.9089 5.95679 78.9601 5.68018 77.8543 5.68018ZM136.89 5.68018C135.814 5.68018 134.878 5.95586 134.068 6.49805C133.251 7.0454 132.603 7.79265 132.125 8.75146L132.043 8.93262C131.644 9.84817 131.441 10.8833 131.441 12.0454C131.441 13.2536 131.671 14.3334 132.122 15.2925C132.601 16.2542 133.25 17.0037 134.068 17.5522C134.878 18.0946 135.814 18.3701 136.89 18.3701C137.996 18.3701 138.945 18.0935 139.752 17.5522C140.57 17.0049 141.204 16.2575 141.656 15.2988L141.66 15.2905C142.137 14.3316 142.38 13.2528 142.38 12.0454C142.38 10.8865 142.166 9.85396 141.746 8.94043L141.66 8.75928L141.656 8.75146L142.032 8.57227L142.038 8.56934L141.656 8.75146C141.204 7.79284 140.569 7.04544 139.752 6.49805C138.945 5.9568 137.996 5.68019 136.89 5.68018ZM162.151 5.68018C161.017 5.68019 160.039 5.95768 159.203 6.50098C158.358 7.05039 157.698 7.79981 157.221 8.75928C156.744 9.71681 156.501 10.8093 156.501 12.0454C156.501 13.2529 156.744 14.332 157.221 15.291C157.698 16.2502 158.359 16.9994 159.203 17.5488C160.039 18.0923 161.017 18.3701 162.151 18.3701C163.314 18.3701 164.305 18.0912 165.139 17.5488C165.984 16.9994 166.645 16.2503 167.122 15.291C167.599 14.332 167.842 13.2529 167.842 12.0454C167.842 10.8093 167.598 9.71681 167.122 8.75928C166.645 7.7998 165.984 7.05039 165.139 6.50098C164.305 5.9586 163.314 5.68018 162.151 5.68018ZM258.349 16.6533L258.349 16.6528L258.317 16.6377L258.349 16.6533ZM186.456 5.68018C185.69 5.68018 184.981 5.78287 184.328 5.98486C183.696 6.18016 183.153 6.508 182.693 6.97021C182.239 7.42628 181.867 8.05268 181.587 8.86914C181.547 8.98591 181.511 9.10798 181.477 9.23486H191.044C190.971 8.61369 190.73 8.05338 190.313 7.54639L190.306 7.53809C189.895 7.00955 189.374 6.58607 188.739 6.26855L188.61 6.20654L188.594 6.19873L188.782 5.83545L188.789 5.81982L188.594 6.19873C187.931 5.85351 187.22 5.68018 186.456 5.68018ZM236.924 6.15381L236.907 6.14502L237.126 5.78027L236.924 6.15381ZM65.2288 5.37158L65.218 5.38135L64.9484 5.05176L65.2288 5.37158Z" fill="white" style="fill:white;fill-opacity:1;"/>
</svg>
