<svg width="120" height="40" viewBox="0 0 120 40" fill="none" xmlns="http://www.w3.org/2000/svg">
<g clip-path="url(#clip0_207_3728)">
<path fill-rule="evenodd" clip-rule="evenodd" d="M22.861 5.79395C24.0356 5.42005 24.8889 4.294 24.8889 2.96296C24.8889 1.32656 23.5992 0 22.0082 0H12.0988C11.9911 0 11.8847 0.00608183 11.7801 0.0179299C5.21607 0.373089 0 5.96 0 12.8C0 19.8693 5.57157 25.6 12.4444 25.6C19.3173 25.6 24.8889 19.8693 24.8889 12.8C24.8889 10.2138 24.1432 7.8068 22.861 5.79395ZM12.4444 6.16296C8.88073 6.16296 5.99177 9.13447 5.99177 12.8C5.99177 16.4655 8.88073 19.437 12.4444 19.437C16.0082 19.437 18.8971 16.4655 18.8971 12.8C18.8971 9.13447 16.0082 6.16296 12.4444 6.16296Z" fill="#1EB0FF" style="fill:#1EB0FF;fill:color(display-p3 0.1172 0.6910 1.0000);fill-opacity:1;"/>
<path d="M4.89716 25.6C2.75071 25.6 1.15977 27.6942 2.30287 29.5629C4.50521 33.1629 8.40269 35.5556 12.8434 35.5556C17.2842 35.5556 21.1818 33.1629 23.384 29.5629C24.5271 27.6942 22.9361 25.6 20.7897 25.6C19.4982 25.6 18.3733 26.4249 17.4737 27.3782C16.3011 28.6206 14.6599 29.3926 12.8434 29.3926C11.027 29.3926 9.38585 28.6206 8.21322 27.3782C7.31358 26.4249 6.18871 25.6 4.89716 25.6Z" fill="#1EB0FF" style="fill:#1EB0FF;fill:color(display-p3 0.1172 0.6910 1.0000);fill-opacity:1;"/>
<path d="M42.3384 0.254883C42.8659 0.254883 43.3197 0.433028 43.6774 0.796224C44.0372 1.16152 44.2106 1.63224 44.2106 2.18229V13.5811C44.2105 14.1164 44.0354 14.5825 43.6829 14.9613L43.6774 14.9674C43.3197 15.3305 42.8658 15.5085 42.3384 15.5085C41.811 15.5084 41.3574 15.3303 40.9997 14.9671L40.9938 14.9616L40.9299 14.8893C40.7553 14.6834 40.6307 14.4532 40.5548 14.2018C40.4196 14.3228 40.2737 14.4432 40.1172 14.5625C39.6692 14.9035 39.1421 15.1936 38.5392 15.4349L38.5346 15.4365C37.9337 15.6653 37.2808 15.778 36.5787 15.778C35.3078 15.778 34.15 15.4498 33.1126 14.7917L33.1096 14.7897L32.9184 14.6605C31.9746 13.9998 31.2191 13.1257 30.6517 12.0436L30.8982 11.9102L30.8952 11.9118L30.6517 12.0436L30.6491 12.0387L30.5423 11.8161C30.0252 10.6937 29.7695 9.4298 29.7695 8.02995C29.7695 6.5195 30.06 5.17972 30.6501 4.01921L30.6507 4.0179L30.7667 3.80111C31.3575 2.73247 32.1295 1.8861 33.084 1.26953C34.1029 0.593118 35.2347 0.254883 36.4725 0.254883C37.2617 0.254887 37.9932 0.376091 38.6642 0.62207C39.322 0.863182 39.8956 1.1718 40.3811 1.55013C40.4311 1.58772 40.4801 1.62578 40.5279 1.66374C40.5996 1.37546 40.7344 1.11667 40.9347 0.892253L40.9997 0.822917C41.3554 0.443766 41.8086 0.254898 42.3384 0.254883ZM70.0743 0.254883C70.6018 0.25489 71.0555 0.433036 71.4133 0.796224C71.773 1.16151 71.9461 1.6323 71.9461 2.18229V13.5811C71.9461 14.1164 71.7711 14.5825 71.4188 14.9613L71.2156 14.7666L71.2165 14.7676L71.4188 14.9613L71.4133 14.9674C71.0556 15.3306 70.6018 15.5085 70.0743 15.5085C69.5797 15.5085 69.15 15.352 68.8034 15.0332L68.7352 14.9671L68.7297 14.9616L68.932 14.7676L68.9326 14.7666L68.7297 14.9616C68.5214 14.7376 68.3756 14.4827 68.2907 14.2015C68.1554 14.3225 68.0097 14.4432 67.853 14.5625C67.4051 14.9035 66.8778 15.1936 66.2747 15.4349L66.2705 15.4365L66.1754 15.1787L66.1721 15.1709L66.2705 15.4365C65.6696 15.6653 65.0164 15.778 64.3142 15.778C63.0434 15.778 61.8857 15.4498 60.8484 14.7917L60.8452 14.7897C59.8119 14.1153 58.9924 13.1978 58.3873 12.0436L58.6331 11.9108L58.6298 11.9124L58.3873 12.0436L58.385 12.0387L58.2782 11.8161C57.7609 10.6937 57.5054 9.42982 57.5054 8.02995C57.5054 6.5195 57.7957 5.17972 58.3857 4.01921L58.3866 4.0179L58.5022 3.80111C59.0931 2.7324 59.8654 1.88612 60.8199 1.26953C61.8387 0.593198 62.9705 0.254895 64.208 0.254883C64.9974 0.254883 65.7291 0.376054 66.4 0.62207C67.058 0.863189 67.6314 1.17179 68.117 1.55013L68.2635 1.66406C68.3351 1.37569 68.4699 1.11674 68.6703 0.892253L68.7352 0.822917C69.0909 0.443715 69.5444 0.254883 70.0743 0.254883ZM54.7621 0.254883C55.3492 0.254898 55.8587 0.425355 56.2703 0.780599C56.6915 1.12858 56.9258 1.56238 56.9258 2.07454C56.9258 2.71087 56.7644 3.23663 56.3804 3.58073L56.1953 3.36751L56.3729 3.58691C56.0275 3.87569 55.6387 4.02895 55.2134 4.02897C54.8884 4.02897 54.5812 3.97552 54.2942 3.86654L54.1724 3.81641L54.166 3.8138L54.2825 3.56055L54.2841 3.55664L54.166 3.8138C53.9444 3.70891 53.6765 3.65169 53.3552 3.65169C53.0845 3.65171 52.7979 3.72021 52.4928 3.86686L52.373 3.61035L52.3756 3.61621L52.4928 3.86686L52.4866 3.86979L52.3837 3.92025C52.1455 4.04634 51.9112 4.2355 51.6827 4.49577C51.4428 4.78894 51.2369 5.16245 51.069 5.6224C50.9239 6.05096 50.8476 6.57314 50.8476 7.19466V13.5811C50.8476 14.1165 50.6725 14.5825 50.32 14.9613L50.3145 14.9674C49.9567 15.3305 49.5029 15.5085 48.9754 15.5085C48.4481 15.5084 47.9944 15.3303 47.6367 14.9671L47.8341 14.7666L47.8332 14.7676L47.6367 14.9671L47.6309 14.9616L47.5672 14.8893C47.2575 14.524 47.1036 14.083 47.1036 13.5811V2.45182C47.1036 1.94976 47.2577 1.51361 47.5718 1.16178L47.6367 1.09245C47.9924 0.713266 48.4457 0.524439 48.9754 0.524414C49.5053 0.524414 49.9584 0.713352 50.3141 1.09245C50.5646 1.3467 50.7255 1.64885 50.7995 1.99089C50.8395 1.94391 50.8806 1.89795 50.9226 1.85286L51.0512 1.72005C51.3553 1.41754 51.6895 1.16483 52.0535 0.963216C52.4646 0.71775 52.9037 0.538046 53.3698 0.424479C53.8328 0.311654 54.2971 0.254883 54.7621 0.254883ZM82.71 0.254883C84.0524 0.254883 85.1174 0.539499 85.8595 1.15397C86.5974 1.75032 87.0959 2.54686 87.358 3.5306L87.4076 3.70931C87.6484 4.60882 87.7674 5.60071 87.7674 6.68262V13.5811C87.7674 14.1164 87.5921 14.5825 87.2398 14.9613L87.2343 14.9674C86.8765 15.3306 86.4227 15.5085 85.8952 15.5085C85.3677 15.5084 84.9143 15.3303 84.5565 14.9671L84.5507 14.9616L84.4867 14.8893C84.1771 14.524 84.0234 14.083 84.0234 13.5811V6.68262C84.0234 6.11538 83.9473 5.61741 83.8 5.18555L84.0636 5.09245L84.0594 5.09375L83.8 5.18555L83.7958 5.17318L83.7714 5.09408C83.6421 4.70443 83.4199 4.39718 83.1032 4.16341C82.7804 3.92509 82.2901 3.78646 81.5953 3.78646C80.9259 3.78646 80.3757 3.9221 79.9319 4.17871C79.4965 4.44091 79.1607 4.79048 78.9199 5.23047C78.6977 5.6508 78.5835 6.1325 78.5835 6.68262V13.5811C78.5835 14.1164 78.4082 14.5825 78.0559 14.9613L77.8526 14.7666L77.8536 14.7676L78.0559 14.9613L78.0503 14.9674C77.6926 15.3306 77.2388 15.5085 76.7113 15.5085C76.2167 15.5085 75.787 15.352 75.4405 15.0332L75.3723 14.9671L75.3668 14.9616C75.0144 14.5828 74.8395 14.1164 74.8395 13.5811V2.45182C74.8395 1.94981 74.9934 1.51359 75.3073 1.16178L75.3723 1.09245C75.728 0.713207 76.1814 0.524415 76.7113 0.524414C77.2412 0.524414 77.6943 0.713318 78.05 1.09245C78.3428 1.38975 78.5137 1.75243 78.5659 2.16797C78.8393 1.87036 79.148 1.59249 79.4916 1.33464C79.921 1.01249 80.4039 0.757741 80.9388 0.569661L81.0421 0.531576C81.5607 0.346377 82.1173 0.254891 82.71 0.254883ZM92.6826 11.2223C93.2414 11.2224 93.7109 11.3789 94.044 11.7327C94.3983 12.0714 94.5544 12.5512 94.5545 13.1227V13.5811C94.5544 14.155 94.3971 14.6398 94.0479 14.9941C93.7133 15.334 93.2419 15.4814 92.6826 15.4814H92.3375C91.7769 15.4814 91.3018 15.3336 90.952 15.0007L90.939 14.9876C90.6111 14.6325 90.4656 14.1502 90.4656 13.5811V13.1227C90.4656 12.5549 90.6107 12.0764 90.9455 11.7367C91.2946 11.3821 91.7721 11.2223 92.3375 11.2223H92.6826ZM43.5378 14.8255L43.481 14.7676L43.4797 14.7666L43.5378 14.8255ZM50.1748 14.8255L50.118 14.7676L50.1167 14.7666L50.1748 14.8255ZM87.0946 14.8255L87.0378 14.7676L87.0365 14.7666L87.0946 14.8255ZM36.9767 3.78646C36.2661 3.78646 35.6487 3.97027 35.1146 4.33171C34.5755 4.69661 34.1476 5.19473 33.8318 5.83398L33.7775 5.95475C33.5148 6.56511 33.3808 7.25521 33.3808 8.02995C33.3808 8.83539 33.5322 9.55527 33.8298 10.1947C34.1459 10.8358 34.5744 11.3355 35.1146 11.7012C35.6487 12.0627 36.2662 12.2464 36.9767 12.2464C37.7064 12.2464 38.3325 12.062 38.8655 11.7012C39.4047 11.3362 39.8234 10.838 40.1217 10.1989L40.1243 10.1934C40.4391 9.55406 40.5993 8.83487 40.5993 8.02995C40.5993 7.25731 40.4582 6.56898 40.1814 5.95996L40.1243 5.83919L40.1217 5.83398L40.3701 5.71452L40.374 5.71224L40.1217 5.83398C39.8234 5.19489 39.4047 4.69664 38.8655 4.33171C38.3324 3.97087 37.7064 3.78646 36.9767 3.78646ZM64.7123 3.78646C64.0017 3.78648 63.3844 3.97027 62.8502 4.33171C62.3111 4.69663 61.8832 5.1947 61.5673 5.83398L61.5131 5.95475C61.2505 6.5651 61.1166 7.25523 61.1166 8.02995C61.1167 8.83538 61.2679 9.55528 61.5654 10.1947C61.8814 10.8358 62.3099 11.3355 62.8502 11.7012C63.3844 12.0627 64.0017 12.2464 64.7123 12.2464C65.4421 12.2464 66.0682 12.062 66.6014 11.7012C67.1406 11.3362 67.5594 10.838 67.8576 10.1989L67.8602 10.1934C68.1749 9.55407 68.3349 8.83486 68.3349 8.02995C68.3349 7.25732 68.194 6.56897 67.9173 5.95996L67.8602 5.83919L67.8576 5.83398L68.106 5.71452L68.1095 5.71224L67.8576 5.83398C67.5594 5.19491 67.1406 4.69663 66.6014 4.33171C66.0682 3.97087 65.4421 3.78646 64.7123 3.78646ZM56.3804 3.58073L56.3729 3.58691L56.1953 3.36751L56.3804 3.58073Z" fill="#1C1C1C" style="fill:#1C1C1C;fill:color(display-p3 0.1083 0.1083 0.1083);fill-opacity:1;"/>
<path d="M59.449 20.082C59.1845 19.731 58.6555 19.5556 58.1265 19.5556C57.5975 19.5556 57.1566 19.731 56.804 20.082L56.7158 20.1698C56.5395 20.433 56.3631 20.784 56.3631 21.135C56.275 21.0472 56.1868 20.9595 56.0105 20.8717C55.5696 20.5207 54.9525 20.1698 54.3353 19.9943C53.7181 19.6433 53.0128 19.5556 52.2193 19.5556C50.9849 19.5556 49.8388 19.9065 48.7807 20.5207L48.6044 20.6962C47.6346 21.3104 46.9292 22.1879 46.4002 23.3286C45.7831 24.4692 45.5186 25.7854 45.5186 27.2771C45.5186 28.681 45.7831 29.9094 46.3121 31.0501L46.4002 31.2256C47.0174 32.3662 47.8109 33.2437 48.8689 33.9456L49.0452 34.0334C50.0151 34.5598 51.1613 34.9108 52.3956 34.9108C53.1009 34.9108 53.7181 34.8231 54.2471 34.5599C54.8643 34.2966 55.3051 34.0334 55.746 33.6824C55.9223 33.5069 56.1868 33.3314 56.3631 33.1559V33.6824C56.3631 34.5599 56.0986 35.1741 55.4815 35.7005C54.9525 36.1392 54.0708 36.4025 52.7483 36.4025C52.4838 36.4025 52.1311 36.4025 51.6903 36.227H51.5139C51.0731 36.1392 50.6323 35.9638 50.1914 35.7883C49.9269 35.7005 49.6624 35.6128 49.4861 35.525H49.3097C48.8689 35.3496 48.4281 35.3495 47.9872 35.6128C47.5464 35.876 47.2819 36.3147 47.1056 36.8412C46.9292 37.2799 47.0174 37.7186 47.1937 38.0696L47.2819 38.1574C47.5464 38.5961 47.9872 38.8593 48.5162 39.1226H48.6044C48.8689 39.2103 49.2216 39.298 49.6624 39.4735C50.1914 39.649 50.7204 39.7368 51.2494 39.8245C51.8666 39.9123 52.3074 40 52.6601 40C53.8945 40 55.1288 39.8245 56.1868 39.298C57.333 38.8593 58.2147 38.1574 58.92 37.1922C59.6253 36.227 59.978 34.9108 59.978 33.3314V21.4859C60.0662 20.9595 59.8898 20.433 59.449 20.082ZM56.0105 29.3829C55.6578 29.9971 55.3051 30.5236 54.688 30.8746C54.159 31.2256 53.4536 31.4011 52.7483 31.4011C52.0429 31.4011 51.3376 31.2256 50.8086 30.8746C50.2796 30.5236 49.8388 29.9971 49.4861 29.3829C49.1334 28.7687 49.0452 28.0668 49.0452 27.2771C49.0452 26.4874 49.2216 25.6977 49.4861 25.0835C49.8388 24.4692 50.1914 23.9428 50.8086 23.5918C51.3376 23.2408 51.9548 23.0653 52.7483 23.0653C53.5418 23.0653 54.159 23.2408 54.688 23.5918C55.217 23.9428 55.6578 24.4692 56.0105 25.0835C56.3631 25.6977 56.4513 26.3996 56.4513 27.2771C56.4513 28.0668 56.275 28.7687 56.0105 29.3829Z" fill="#1C1C1C" style="fill:#1C1C1C;fill:color(display-p3 0.1083 0.1083 0.1083);fill-opacity:1;"/>
<path d="M117.753 19.5556C118.289 19.5556 118.736 19.7341 119.093 20.0912C119.451 20.4483 119.629 20.8947 119.629 21.4304V32.9471C119.629 34.6434 119.272 35.9825 118.646 37.0539C118.021 38.1252 117.127 38.8394 116.055 39.2858C114.983 39.7322 113.821 40 112.481 40C111.855 40 111.319 39.9107 110.604 39.8214C109.979 39.7322 109.354 39.5536 108.996 39.3751C108.46 39.1072 108.013 38.8394 107.745 38.393V38.3037C107.477 37.9466 107.477 37.5895 107.566 37.1431C107.745 36.6075 108.013 36.1611 108.46 35.8933C108.907 35.7147 109.354 35.6254 109.8 35.804C109.979 35.8933 110.247 35.9825 110.604 36.0718L110.962 36.1611C111.409 36.3396 111.855 36.4289 112.481 36.4289C113.285 36.4289 113.911 36.3396 114.357 36.0718C114.804 35.8933 115.162 35.5361 115.43 35.0898C115.608 34.7327 115.787 34.197 115.787 33.4828L115.698 33.5721L115.608 33.6613C115.162 34.0184 114.625 34.2863 114 34.4648C113.374 34.6434 112.57 34.7327 111.766 34.7327C110.783 34.7327 109.89 34.4648 109.175 34.0184L109.354 33.7506L109.264 34.0184L109.085 33.9292C108.46 33.4828 107.924 32.9471 107.566 32.2329H107.477C107.03 31.4294 106.852 30.4474 106.852 29.376V21.5197C106.852 20.984 107.03 20.5376 107.388 20.1805C107.745 19.8234 108.192 19.6448 108.728 19.6448C109.264 19.6448 109.711 19.8234 110.068 20.1805C110.426 20.5376 110.604 20.984 110.604 21.5197V28.4833C110.604 29.6439 110.873 30.3581 111.23 30.8045C111.677 31.2508 112.302 31.4294 113.196 31.4294C113.821 31.4294 114.268 31.3401 114.625 31.0723H114.715C115.072 30.8937 115.34 30.5366 115.519 30.1795C115.698 29.7331 115.876 29.1975 115.876 28.5725V21.5197C115.876 20.984 116.055 20.5376 116.413 20.1805C116.77 19.7341 117.217 19.5556 117.753 19.5556Z" fill="#1C1C1C" style="fill:#1C1C1C;fill:color(display-p3 0.1083 0.1083 0.1083);fill-opacity:1;"/>
<path d="M43.2814 20.0813C42.8372 19.7308 42.393 19.5556 41.8599 19.5556C41.3269 19.5556 40.9715 19.7308 40.6161 20.0813L40.5273 20.1689C40.2608 20.4317 40.1719 20.6946 40.0831 20.9575L39.9054 20.8698C39.4612 20.5194 38.8393 20.1689 38.2174 19.9937C37.5066 19.6432 36.7959 19.5556 35.9963 19.5556C34.8413 19.5556 33.6863 19.906 32.6202 20.607C31.7318 21.1327 30.9322 22.0089 30.3103 23.0603L30.2214 23.2356C29.5995 24.3746 29.333 25.7765 29.333 27.266C29.333 28.6679 29.5995 29.8946 30.1326 31.0337L30.2214 31.2089C30.8433 32.3479 31.6429 33.2241 32.7091 33.9251C33.7752 34.5384 34.9301 34.8889 36.174 34.8889C36.8847 34.8889 37.5066 34.8013 38.1285 34.5384C38.7504 34.2756 39.2835 34.0127 39.7277 33.6622C39.9054 33.5746 39.9942 33.3994 40.1719 33.3117C40.2608 33.5746 40.4384 33.8375 40.6161 34.1003C40.9715 34.4508 41.4157 34.626 41.9488 34.626C42.4818 34.626 42.9261 34.4508 43.2814 34.1003C43.6368 33.7498 43.8145 33.2241 43.8145 32.6984V21.4832C43.7256 20.9575 43.548 20.4317 43.2814 20.0813ZM39.7277 29.3689C39.4612 29.9822 39.0169 30.5079 38.4839 30.8584C37.9508 31.2089 37.3289 31.3841 36.6182 31.3841C35.9074 31.3841 35.2855 31.2089 34.7525 30.8584C34.2194 30.5079 33.7752 29.9822 33.4198 29.3689C33.1533 28.7556 32.9756 28.0546 32.9756 27.266C32.9756 26.4775 33.1533 25.8641 33.331 25.2508L33.4198 25.1632C33.6863 24.4622 34.1306 23.9365 34.6636 23.586C35.1967 23.2356 35.8186 23.0603 36.5293 23.0603C37.2401 23.0603 37.862 23.2356 38.395 23.586C38.9281 23.9365 39.3723 24.4622 39.6388 25.0756L39.7277 25.1632C39.9942 25.7765 40.1719 26.4775 40.1719 27.1784C40.1719 28.0546 39.9942 28.7556 39.7277 29.3689Z" fill="#1C1C1C" style="fill:#1C1C1C;fill:color(display-p3 0.1083 0.1083 0.1083);fill-opacity:1;"/>
<path d="M75.4615 24.0498C75.0995 23.1686 74.5564 22.3755 73.9229 21.7586C73.2893 21.0536 72.4747 20.5249 71.6601 20.1724C70.8455 19.7318 69.9404 19.5556 68.9448 19.5556C67.6777 19.5556 66.5011 19.908 65.415 20.5249C64.3289 21.1418 63.4238 22.1111 62.6997 23.2567C61.9756 24.4023 61.7041 25.8123 61.7041 27.4866C61.7041 28.8966 61.9756 30.1303 62.6092 31.2759L62.6997 31.4521C63.3333 32.5096 64.1478 33.3027 65.234 33.9195C66.4106 34.5364 67.7682 34.8889 69.3974 34.8889C70.3025 34.8889 71.2076 34.7126 72.1127 34.4483C73.0178 34.1839 73.6513 33.7433 74.1944 33.3908C74.7374 32.9502 75.009 32.5096 75.009 31.8927C75.009 31.4521 74.8279 31.0996 74.5564 30.7471C74.2849 30.3946 73.8323 30.2184 73.3798 30.2184C73.0178 30.2184 72.6557 30.3065 72.2937 30.4828C72.1127 30.5709 71.9316 30.659 71.7506 30.7471V30.9234C71.5696 31.0115 71.2981 31.1877 70.8455 31.2759C70.4835 31.364 69.9404 31.4521 69.3069 31.4521C68.6733 31.4521 67.9492 31.2759 67.4062 31.0115C66.7726 30.659 66.3201 30.2184 65.958 29.6015C65.777 29.3372 65.6865 28.9847 65.596 28.7203H74.1944C74.6469 28.7203 75.0995 28.5441 75.552 28.2797C75.9141 28.0153 76.0951 27.5747 76.1856 27.1341V27.046C76.0951 25.9004 75.9141 25.0192 75.4615 24.0498ZM65.596 25.3716C65.596 25.2835 65.6865 25.1954 65.6865 25.1073C65.8675 24.5785 66.1391 24.1379 66.4106 23.8736C66.6821 23.6092 67.0441 23.3448 67.4967 23.2567C67.9492 23.0805 68.4018 23.0805 68.9448 23.0805C69.4879 23.0805 69.9404 23.1686 70.393 23.433L70.4835 23.5211C70.936 23.6973 71.2981 23.9617 71.5696 24.3142C71.8411 24.6667 72.0222 25.0192 72.0222 25.4598H65.596V25.3716Z" fill="#1C1C1C" style="fill:#1C1C1C;fill:color(display-p3 0.1083 0.1083 0.1083);fill-opacity:1;"/>
<path d="M99.7105 19.5556C100.798 19.5556 101.704 19.6437 102.429 19.908C103.245 20.1724 103.879 20.4368 104.332 20.8774C104.785 21.318 105.057 21.8467 105.057 22.4636C105.057 22.9042 104.967 23.2567 104.695 23.6092L104.514 23.433L104.785 23.6092C104.423 23.9617 104.06 24.2261 103.517 24.2261C103.245 24.2261 102.973 24.2261 102.792 24.1379H102.701H102.61C102.429 24.0498 102.248 23.9617 102.157 23.7854C102.067 23.6973 101.885 23.6092 101.704 23.433C101.614 23.3448 101.342 23.2567 100.979 23.2567L100.707 23.0805C100.436 23.0805 100.254 23.0805 100.164 23.0805C99.2574 23.0805 98.5325 23.2567 97.9887 23.6092C97.445 23.9617 96.9919 24.4904 96.6294 25.1073L96.5388 25.1954C96.2669 25.8123 96.0856 26.4291 96.0856 27.2222C96.0856 28.0153 96.2669 28.7203 96.5388 29.4253L96.6294 29.5134C96.9919 30.0421 97.3544 30.5709 97.8981 30.8353C98.4418 31.1877 99.1668 31.364 99.8918 31.364C100.345 31.364 100.707 31.364 100.979 31.2759C101.251 31.1877 101.523 31.1877 101.704 31.0996C101.976 30.9234 102.157 30.8353 102.339 30.659C102.61 30.4828 102.973 30.3946 103.426 30.3946C103.97 30.3946 104.423 30.5709 104.695 30.9234C104.967 31.2759 105.148 31.7165 105.148 32.1571C105.148 32.6858 104.785 33.2146 104.242 33.5671L104.151 33.6552C103.607 34.0077 102.973 34.272 102.157 34.5364C101.342 34.8008 100.436 34.8889 99.4387 34.8889C97.9887 34.8889 96.72 34.5364 95.5419 33.9195C94.5451 33.3027 93.7295 32.4215 93.0951 31.364L93.1857 31.1877L93.0951 31.0115C92.5514 29.8659 92.3701 28.7203 92.3701 27.3103C92.3701 25.8123 92.642 24.4904 93.2763 23.3448C93.9107 22.1992 94.8169 21.2299 95.9044 20.613L96.0856 20.4368C97.1731 19.8199 98.3512 19.5556 99.7105 19.5556Z" fill="#1C1C1C" style="fill:#1C1C1C;fill:color(display-p3 0.1083 0.1083 0.1083);fill-opacity:1;"/>
<path d="M85.6779 19.5556C86.9907 19.5556 88.0409 19.823 88.741 20.447L88.9161 20.5362C89.5287 21.1602 90.0538 21.8734 90.2289 22.854C90.4914 23.8346 90.6664 24.8152 90.6664 25.9742V32.9277C90.6664 33.4625 90.4914 33.9083 90.1413 34.354C89.7913 34.7106 89.3537 34.8889 88.8286 34.8889C88.3034 34.8889 87.9534 34.7106 87.6033 34.4432L87.5158 34.354C87.1657 33.9974 86.9907 33.4625 86.9907 32.9277V25.9742C86.9907 25.4393 86.9031 24.9935 86.8156 24.637L86.7281 24.4587V24.3695C86.6406 24.0129 86.378 23.6563 86.0279 23.478C85.7654 23.2106 85.2403 23.1214 84.5401 23.1214C83.84 23.1214 83.3149 23.2997 82.8773 23.478C82.4397 23.7455 82.0896 24.1021 81.9145 24.5478C81.652 24.9935 81.5645 25.4393 81.5645 25.9742V32.9277C81.5645 33.4625 81.3894 33.9083 81.0394 34.354C80.6893 34.7106 80.2517 34.8889 79.7266 34.8889C79.2015 34.8889 78.8514 34.7106 78.5013 34.4432L78.4138 34.354C78.0637 33.9974 77.8887 33.4625 77.8887 32.9277V21.7842C77.8887 21.2494 78.0637 20.8036 78.4138 20.447C78.7639 20.0904 79.2015 19.9121 79.7266 19.9121C80.2517 19.9121 80.6893 20.0904 81.0394 20.447C81.3019 20.7145 81.477 21.0711 81.5645 21.5168C81.827 21.2494 82.1771 20.9819 82.4397 20.7145C82.8773 20.3579 83.3149 20.1796 83.84 19.9121H83.9275C84.5401 19.6447 85.0652 19.5556 85.6779 19.5556Z" fill="#1C1C1C" style="fill:#1C1C1C;fill:color(display-p3 0.1083 0.1083 0.1083);fill-opacity:1;"/>
</g>
<defs>
<clipPath id="clip0_207_3728">
<rect width="120" height="40" fill="white" style="fill:white;fill-opacity:1;"/>
</clipPath>
</defs>
</svg>
