<svg width="197" height="25" viewBox="0 0 197 25" fill="none" xmlns="http://www.w3.org/2000/svg">
<path fill-rule="evenodd" clip-rule="evenodd" d="M15.5835 4.41091C16.3843 4.15853 16.9659 3.39845 16.9659 2.5C16.9659 1.39543 16.0868 0.5 15.0023 0.5H8.24733C8.1739 0.5 8.10141 0.504105 8.03007 0.512103C3.55562 0.751835 0 4.523 0 9.14001C0 13.9117 3.79795 17.78 8.48296 17.78C13.168 17.78 16.9659 13.9117 16.9659 9.14001C16.9659 7.39434 16.4576 5.76959 15.5835 4.41091ZM8.48296 4.66C6.05369 4.66 4.08439 6.66577 4.08439 9.14001C4.08439 11.6142 6.05369 13.62 8.48296 13.62C10.9122 13.62 12.8815 11.6142 12.8815 9.14001C12.8815 6.66577 10.9122 4.66 8.48296 4.66Z" fill="#1EB0FF" style="fill:#1EB0FF;fill:color(display-p3 0.1172 0.6910 1.0000);fill-opacity:1;"/>
<path d="M3.33823 17.78C1.87507 17.78 0.790578 19.1936 1.56979 20.455C3.07105 22.885 5.72783 24.5 8.75494 24.5C11.7821 24.5 14.4389 22.885 15.9401 20.455C16.7193 19.1936 15.6348 17.78 14.1716 17.78C13.2913 17.78 12.5245 18.3368 11.9112 18.9803C11.1119 19.8189 9.99316 20.34 8.75494 20.34C7.51673 20.34 6.39801 19.8189 5.59867 18.9803C4.98542 18.3368 4.21863 17.78 3.33823 17.78Z" fill="#1EB0FF" style="fill:#1EB0FF;fill:color(display-p3 0.1172 0.6910 1.0000);fill-opacity:1;"/>
<path d="M126.566 0.786743C127.159 0.786743 127.67 0.987156 128.073 1.39575C128.477 1.80671 128.672 2.33628 128.672 2.95508V16.4456C128.672 18.248 128.284 19.7259 127.477 20.8478C126.705 21.968 125.68 22.7733 124.411 23.26L124.412 23.2604C123.158 23.761 121.815 24.01 120.385 24.01C119.964 24.01 119.428 23.957 118.784 23.8547C118.139 23.7523 117.523 23.6293 116.937 23.4856C116.428 23.3609 116.016 23.2415 115.706 23.1267L115.58 23.0776L115.572 23.0743C114.938 22.7954 114.457 22.4254 114.173 21.9453L114.442 21.7809L114.434 21.7856L114.173 21.9453L114.17 21.9409L114.123 21.853C113.9 21.4111 113.869 20.9337 114.023 20.4413C114.219 19.8042 114.548 19.3196 115.038 19.046L115.048 19.0398C115.523 18.7991 116.025 18.7759 116.534 18.9592L116.717 19.0189C116.923 19.0901 117.2 19.1951 117.543 19.3317C117.988 19.5083 118.474 19.666 119.001 19.8048L119.008 19.807L119.206 19.8616C119.661 19.9806 120.052 20.037 120.385 20.037C121.846 20.037 122.864 19.7387 123.498 19.2017C124.133 18.6643 124.46 17.921 124.46 16.9308V16.3134C124.265 16.5055 124.045 16.6955 123.799 16.8828L123.798 16.8824C123.315 17.2657 122.743 17.5917 122.086 17.8628L122.078 17.8661C121.404 18.1227 120.689 18.2502 119.937 18.2502C118.561 18.2502 117.305 17.9265 116.175 17.2761L115.95 17.1417L115.947 17.1399C114.764 16.3815 113.831 15.3488 113.15 14.0491L113.427 13.8989L113.423 13.9015L113.15 14.0491L113.149 14.0472L113.024 13.7968C112.424 12.5333 112.127 11.11 112.127 9.53369C112.127 7.83291 112.465 6.32459 113.15 5.01831C113.788 3.78216 114.638 2.79638 115.702 2.06885L115.918 1.92676C117.085 1.16635 118.387 0.786743 119.818 0.786743C120.686 0.786747 121.49 0.923485 122.226 1.20093C122.949 1.47351 123.577 1.82268 124.105 2.25122C124.24 2.35704 124.368 2.46407 124.489 2.57239C124.551 2.16666 124.716 1.80728 124.987 1.50378L125.06 1.42578C125.46 0.999154 125.97 0.786787 126.566 0.786743ZM193.984 1.08997C194.583 1.08999 195.096 1.30461 195.497 1.7356C195.895 2.14317 196.091 2.65903 196.091 3.2583V16.1423C196.091 18.0346 195.737 19.5756 194.998 20.7357L194.998 20.7361C194.288 21.9028 193.322 22.7468 192.104 23.2582C190.906 23.7615 189.571 24.01 188.102 24.01C187.449 24.01 186.756 23.9583 186.028 23.8555C185.294 23.7521 184.677 23.5947 184.184 23.3772C183.551 23.0982 183.07 22.7288 182.785 22.2485L182.783 22.2441L182.735 22.1562C182.513 21.715 182.482 21.2384 182.636 20.7467H182.635C182.83 20.1085 183.16 19.6229 183.649 19.3489L183.798 19.6228L183.793 19.6111L183.649 19.3489L183.66 19.343C184.14 19.0997 184.649 19.0779 185.164 19.2679C185.407 19.3455 185.703 19.4502 186.05 19.5818L186.423 19.725L186.432 19.7286L186.313 20.0135L186.312 20.0172L186.432 19.7286C186.905 19.9313 187.459 20.037 188.102 20.037C188.991 20.037 189.701 19.9092 190.247 19.6693L190.258 19.6642C190.802 19.4506 191.2 19.082 191.464 18.5461L191.47 18.5344C191.704 18.104 191.85 17.5175 191.893 16.7594C191.852 16.7971 191.811 16.8348 191.769 16.8711L191.768 16.8718L191.666 16.9557C191.155 17.3687 190.554 17.6832 189.869 17.902C189.135 18.1359 188.306 18.2502 187.384 18.2502C186.281 18.2502 185.297 17.9958 184.446 17.4772L184.607 17.2047L184.596 17.2216L184.446 17.4772L184.438 17.472L184.286 17.3691C183.583 16.8781 183.02 16.2392 182.595 15.4572L182.506 15.2872L182.505 15.2847L182.776 15.147L182.786 15.1418L182.505 15.2847C182.043 14.3454 181.815 13.2847 181.815 12.1104V3.2583C181.815 2.65582 182.013 2.13759 182.414 1.729L182.415 1.72937C182.815 1.30256 183.325 1.08998 183.921 1.08997C184.518 1.08997 185.028 1.30263 185.427 1.72937L185.428 1.729C185.83 2.13759 186.027 2.65582 186.027 3.2583V11.019C186.027 12.2971 186.3 13.1171 186.763 13.5737C187.266 14.0299 187.977 14.2772 188.938 14.2772C189.592 14.2772 190.122 14.1544 190.541 13.9264L190.619 13.8784C191.004 13.6314 191.305 13.2899 191.523 12.8468L191.523 12.8472C191.756 12.3554 191.879 11.7497 191.879 11.019V3.2583C191.879 2.65916 192.073 2.14349 192.472 1.73596L192.471 1.7356C192.872 1.30454 193.385 1.08997 193.984 1.08997ZM191.734 18.6831L191.741 18.6868L191.599 18.6073L191.734 18.6831ZM32.6302 0.786743C33.2237 0.786743 33.7341 0.987156 34.1366 1.39575C34.5414 1.80671 34.7364 2.33627 34.7364 2.95508V15.7787C34.7364 16.381 34.5393 16.9053 34.1428 17.3314L34.1366 17.3384L34.1362 17.338C33.7338 17.7465 33.2236 17.947 32.6302 17.947C32.0369 17.947 31.5266 17.7466 31.1241 17.338L31.1176 17.3318L31.1179 17.3314L31.0456 17.2505C30.8492 17.0188 30.7091 16.7599 30.6237 16.4771C30.4716 16.6131 30.3075 16.7487 30.1313 16.8828C29.6273 17.2664 29.0344 17.5928 28.3561 17.8643L28.3509 17.8661C27.6749 18.1234 26.9404 18.2502 26.1505 18.2502C24.7208 18.2502 23.4183 17.8811 22.2511 17.1406L22.2479 17.1384L22.0327 16.993C20.971 16.2497 20.121 15.2664 19.4827 14.0491L19.7599 13.8989L19.7567 13.9008L19.4827 14.0491L19.4798 14.0436L19.3596 13.7931C18.7778 12.5305 18.4902 11.1085 18.4902 9.53369C18.4902 7.83444 18.817 6.32719 19.4809 5.02161L19.4816 5.02014L19.612 4.77625C20.2767 3.57403 21.1452 2.62186 22.219 1.92822C23.3653 1.16726 24.6386 0.786743 26.0311 0.786743C26.9189 0.786747 27.7418 0.923102 28.4967 1.19983C29.2367 1.47108 29.8821 1.81827 30.4283 2.2439C30.4845 2.28618 30.5396 2.329 30.5934 2.3717C30.674 2.04739 30.8257 1.75626 31.0511 1.50378L31.1241 1.42578C31.5243 0.999237 32.0342 0.78676 32.6302 0.786743ZM63.8331 0.786743C64.4265 0.786752 64.937 0.987165 65.3395 1.39575C65.7442 1.8067 65.9389 2.33633 65.9389 2.95508V15.7787C65.9389 16.381 65.742 16.9053 65.3457 17.3314L65.117 17.1124L65.1181 17.1135L65.3457 17.3314L65.3395 17.3384L65.3391 17.338C64.9366 17.7466 64.4265 17.947 63.8331 17.947C63.2767 17.947 62.7932 17.771 62.4034 17.4124L62.3266 17.338L62.3204 17.3318L62.548 17.1135L62.5487 17.1124L62.3204 17.3318C62.0861 17.0798 61.922 16.7931 61.8266 16.4767C61.6744 16.6128 61.5105 16.7486 61.3342 16.8828C60.8303 17.2664 60.2371 17.5928 59.5586 17.8643L59.5538 17.8661L59.4468 17.576L59.4431 17.5673L59.5538 17.8661C58.8778 18.1235 58.143 18.2502 57.353 18.2502C55.9234 18.2502 54.621 17.881 53.454 17.1406L53.4504 17.1384C52.2879 16.3797 51.3659 15.3475 50.6852 14.0491L50.9617 13.8997L50.9581 13.9015L50.6852 14.0491L50.6826 14.0436L50.5625 13.7931C49.9806 12.5305 49.6931 11.1085 49.6931 9.53369C49.6931 7.83444 50.0197 6.32719 50.6834 5.02161L50.6845 5.02014L50.8145 4.77625C51.4792 3.57395 52.348 2.62188 53.4219 1.92822C54.5681 1.16735 55.8413 0.786757 57.2336 0.786743C58.1216 0.786743 58.9448 0.923061 59.6996 1.19983C60.4397 1.47109 61.0849 1.81826 61.6312 2.2439L61.7959 2.37207C61.8765 2.04765 62.0282 1.75634 62.2536 1.50378L62.3266 1.42578C62.7268 0.999179 63.2369 0.786743 63.8331 0.786743ZM107.663 0.786743C108.256 0.786743 108.766 0.987156 109.169 1.39575C109.574 1.80671 109.769 2.33629 109.769 2.95508V15.7787C109.769 16.381 109.572 16.9053 109.175 17.3314L108.946 17.1124L108.948 17.1135L109.175 17.3314L109.169 17.3384L109.169 17.338C108.766 17.7465 108.256 17.947 107.663 17.947C107.069 17.947 106.559 17.7466 106.156 17.338L106.379 17.1124L106.15 17.3314C105.916 17.0796 105.752 16.7933 105.656 16.4771C105.504 16.6131 105.34 16.7486 105.164 16.8828C104.66 17.2664 104.067 17.5928 103.388 17.8643L103.383 17.8661C102.707 18.1234 101.973 18.2502 101.183 18.2502C99.7531 18.2502 98.4506 17.8811 97.2835 17.1406L97.2802 17.1384C96.1176 16.3797 95.1959 15.3475 94.515 14.0491L94.7923 13.8989L94.7875 13.9015L94.515 14.0491L94.5121 14.0436L94.3919 13.7931C93.8102 12.5305 93.5226 11.1085 93.5226 9.53369C93.5226 7.83444 93.8495 6.32719 94.5132 5.02161L94.5139 5.02014L94.644 4.77625C95.3088 3.57395 96.1777 2.62189 97.2514 1.92822C98.3976 1.16729 99.671 0.786743 101.063 0.786743C101.951 0.786757 102.774 0.923092 103.529 1.19983C104.269 1.47109 104.914 1.81826 105.461 2.2439L105.625 2.37207C105.714 2.01661 105.888 1.70093 106.15 1.43237L106.227 1.354C106.616 0.975354 107.101 0.786771 107.663 0.786743ZM138.429 0.786743C139.49 0.786743 140.49 1.00854 141.429 1.45325C142.38 1.89409 143.218 2.50313 143.941 3.27844C144.666 4.03589 145.235 4.91882 145.648 5.92468H145.647C146.082 6.93482 146.299 8.00759 146.299 9.13965V9.15283L146.292 9.25903C146.246 9.78468 146.021 10.227 145.619 10.5668C145.202 10.919 144.712 11.0956 144.163 11.0956H134.697C134.798 11.4716 134.938 11.8151 135.115 12.1272C135.546 12.8299 136.084 13.3649 136.729 13.74C137.4 14.099 138.105 14.2772 138.847 14.2772C139.571 14.2772 140.128 14.2172 140.526 14.1066C140.945 13.9907 141.26 13.8603 141.484 13.7217L141.692 13.5884C141.894 13.4607 142.08 13.3496 142.251 13.2551L142.26 13.2496L142.393 13.5199L142.401 13.5349L142.401 13.5345L142.26 13.2496C142.652 13.0513 143.038 12.9431 143.416 12.9431C143.934 12.9432 144.378 13.1266 144.721 13.4994L144.72 13.4998C145.07 13.8571 145.253 14.2874 145.253 14.7782C145.253 15.4478 144.907 16.0239 144.306 16.5067L144.306 16.5071C143.75 16.9847 142.986 17.395 142.031 17.746L141.924 17.4457L141.923 17.446L142.024 17.7482C141.057 18.0828 140.056 18.2502 139.027 18.2502C137.291 18.2502 135.763 17.8871 134.455 17.149L134.45 17.1461C133.248 16.4378 132.297 15.4955 131.602 14.3223L131.466 14.0846L131.464 14.0813C130.78 12.7969 130.441 11.349 130.441 9.74573C130.441 7.88455 130.808 6.28088 131.557 4.9491L131.558 4.948C132.32 3.61036 133.313 2.57755 134.54 1.86011C135.761 1.14601 137.059 0.786745 138.429 0.786743ZM173.719 0.786743C174.874 0.786743 175.89 0.910207 176.761 1.16284C177.647 1.41407 178.357 1.77755 178.863 2.2699C179.398 2.74898 179.677 3.34635 179.677 4.04639C179.677 4.51871 179.537 4.96358 179.266 5.37537L179.262 5.38269L179.02 5.20911L179.004 5.19849L179.261 5.38269C178.957 5.82074 178.506 6.03307 177.959 6.03308C177.66 6.03308 177.387 5.99991 177.147 5.92651L177.045 5.89246L177.029 5.88623L177.013 5.87817L176.93 5.83459C176.741 5.73094 176.567 5.60918 176.408 5.46912C176.269 5.34538 176.1 5.22701 175.898 5.11499L176.048 4.83484L176.048 4.83447L175.886 5.1084C175.741 5.02024 175.483 4.93641 175.078 4.87769L175.122 4.56201L175.121 4.56824L175.078 4.87769L175.061 4.87512L174.788 4.82312C174.537 4.7795 174.352 4.75977 174.227 4.75977C173.259 4.75977 172.454 4.97057 171.796 5.3772L171.796 5.37756C171.149 5.79019 170.65 6.35183 170.297 7.06909L170.016 6.9259L170.027 6.93213L170.297 7.06909L170.296 7.07239L170.232 7.20422C169.922 7.87035 169.763 8.64445 169.763 9.53369C169.763 10.4569 169.943 11.273 170.293 11.9891L170.365 12.1191C170.73 12.7593 171.206 13.2708 171.796 13.6591C172.438 14.0689 173.176 14.2772 174.017 14.2772C174.503 14.2772 174.914 14.2473 175.25 14.1904C175.579 14.1347 175.84 14.0539 176.042 13.9546C176.308 13.8006 176.541 13.6391 176.744 13.4701C177.044 13.2219 177.456 13.1251 177.929 13.1251C178.519 13.1251 179.012 13.3241 179.36 13.7499L179.361 13.7495C179.696 14.1387 179.856 14.6207 179.856 15.1722C179.856 15.8142 179.497 16.3631 178.895 16.822L178.706 16.566L178.705 16.5664L178.709 16.5712L178.895 16.822L178.888 16.8264L178.775 16.9066C178.196 17.3018 177.461 17.6221 176.581 17.8745L176.577 17.8756C175.651 18.1262 174.648 18.2502 173.569 18.2502C171.948 18.2502 170.524 17.8742 169.314 17.1106L169.309 17.1088C168.181 16.3782 167.29 15.406 166.638 14.1974L166.51 13.9524L166.509 13.9491L166.393 13.6993C165.83 12.4424 165.551 11.0522 165.551 9.53369C165.551 7.83291 165.888 6.32459 166.574 5.01831L166.575 5.01648C167.277 3.69516 168.241 2.66161 169.466 1.92346L169.702 1.7854C170.893 1.11762 172.234 0.786745 173.719 0.786743ZM46.6069 0.786743C47.2674 0.786761 47.8405 0.978525 48.3036 1.37817C48.7775 1.76965 49.0411 2.25768 49.0411 2.83386C49.0411 3.54973 48.8595 4.14121 48.4274 4.52832L48.2192 4.28845L48.2188 4.28882L48.419 4.53528C48.0304 4.86015 47.593 5.03257 47.1146 5.03259C46.749 5.03259 46.4034 4.97247 46.0805 4.84985L45.9435 4.79346L45.9362 4.79053L46.0673 4.50562L46.0692 4.50122L45.9362 4.79053C45.687 4.67252 45.3856 4.60815 45.0241 4.60815C44.7195 4.60817 44.3971 4.68523 44.0539 4.85022L43.9191 4.56165L43.9221 4.56824L44.0539 4.85022L44.047 4.85352L43.9312 4.91028C43.6632 5.05213 43.3996 5.26493 43.1426 5.55774C42.8726 5.88756 42.641 6.30776 42.4522 6.8252C42.2889 7.30733 42.2031 7.89479 42.2031 8.59399V15.7787C42.203 16.381 42.006 16.9053 41.6095 17.3314L41.6033 17.3384L41.6029 17.338C41.2005 17.7465 40.6902 17.947 40.0969 17.947C39.5036 17.947 38.9933 17.7466 38.5908 17.338L38.8129 17.1124L38.8118 17.1135L38.5908 17.338L38.5842 17.3318L38.5846 17.3314L38.5126 17.2505C38.1642 16.8395 37.991 16.3434 37.991 15.7787V3.2583C37.991 2.69348 38.1645 2.20281 38.5178 1.80701L38.5908 1.729C38.991 1.30242 39.5009 1.08999 40.0969 1.08997C40.6929 1.08997 41.2028 1.30252 41.6029 1.729C41.8847 2.01504 42.0657 2.35495 42.149 2.73975C42.194 2.6869 42.2402 2.63519 42.2874 2.58447L42.4321 2.43506C42.7742 2.09473 43.1501 1.81043 43.5597 1.58362C44.0222 1.30747 44.5161 1.1053 45.0405 0.977539C45.5614 0.850611 46.0838 0.786743 46.6069 0.786743ZM78.0483 0.786743C79.5584 0.786743 80.7566 1.10694 81.5915 1.79822C82.4216 2.46911 82.9825 3.36521 83.2772 4.47192L83.3331 4.67297C83.604 5.68492 83.7378 6.8008 83.7378 8.01794V15.7787C83.7378 16.381 83.5407 16.9053 83.1443 17.3314L83.1381 17.3384L83.1377 17.338C82.7352 17.7465 82.2251 17.947 81.6316 17.947C81.0382 17.947 80.5281 17.7466 80.1256 17.338L80.119 17.3318L80.1194 17.3314L80.0471 17.2505C79.6987 16.8395 79.5258 16.3433 79.5258 15.7787V8.01794C79.5258 7.3798 79.4402 6.81958 79.2745 6.33374L79.5711 6.229L79.5664 6.23047L79.2745 6.33374L79.2698 6.31982L79.2424 6.23083C79.0969 5.79248 78.8469 5.44683 78.4906 5.18384C78.1274 4.91572 77.5758 4.75977 76.7943 4.75977C76.0412 4.75977 75.4221 4.91236 74.9229 5.20105C74.4331 5.49602 74.0553 5.88929 73.7844 6.38428C73.5345 6.85715 73.4059 7.39906 73.4059 8.01794V15.7787C73.4059 16.381 73.2087 16.9053 72.8123 17.3314L72.5837 17.1124L72.5848 17.1135L72.8123 17.3314L72.8061 17.3384L72.8058 17.338C72.4033 17.7466 71.8932 17.947 71.2997 17.947C70.7433 17.947 70.2599 17.7711 69.87 17.4124L69.7933 17.338L69.7871 17.3318C69.3907 16.9056 69.1939 16.381 69.1939 15.7787V3.2583C69.1939 2.69354 69.3671 2.20279 69.7203 1.80701L69.7933 1.729C70.1935 1.30236 70.7036 1.08997 71.2997 1.08997C71.8958 1.08997 72.4056 1.30248 72.8058 1.729C73.1352 2.06347 73.3274 2.47149 73.3862 2.93896C73.6937 2.60415 74.041 2.29155 74.4276 2.00146C74.9107 1.63906 75.4538 1.35246 76.0557 1.14087L76.1718 1.09802C76.7553 0.889675 77.3815 0.786752 78.0483 0.786743ZM157.513 0.786743C159.021 0.786764 160.219 1.10623 161.054 1.79602L161.207 1.92456C161.956 2.5816 162.467 3.43716 162.744 4.47888H162.743C163.051 5.54175 163.203 6.72244 163.203 8.01794V15.7787C163.203 16.381 163.005 16.9053 162.609 17.3314L162.602 17.3384L162.602 17.338C162.199 17.7465 161.69 17.947 161.096 17.947C160.54 17.947 160.057 17.771 159.667 17.4124L159.59 17.338L159.584 17.3318L159.801 17.1241L159.812 17.1124L159.584 17.3318C159.188 16.9056 158.99 16.381 158.99 15.7787V8.01794C158.99 7.45952 158.925 6.96083 158.797 6.51941L158.738 6.33374L158.734 6.31982L158.707 6.23083C158.561 5.79249 158.312 5.44682 157.955 5.18384C157.592 4.91572 157.04 4.75977 156.26 4.75977C155.504 4.75977 154.884 4.913 154.384 5.20288C153.898 5.49689 153.521 5.88809 153.251 6.38025L153.252 6.38062C153 6.85433 152.871 7.39751 152.871 8.01794V15.7787C152.871 16.381 152.673 16.9053 152.277 17.3314L152.048 17.1117L152.053 17.1168L152.277 17.3314L152.27 17.3384L152.27 17.338C151.868 17.7464 151.358 17.947 150.765 17.947C150.208 17.947 149.725 17.771 149.335 17.4124L149.259 17.338L149.252 17.3318L149.476 17.1168L149.481 17.1121L149.252 17.3318C148.856 16.9056 148.658 16.381 148.658 15.7787V3.2583C148.658 2.65914 148.854 2.1435 149.252 1.73596L149.252 1.7356C149.653 1.30456 150.166 1.08997 150.765 1.08997C151.364 1.09001 151.876 1.3046 152.277 1.7356L152.277 1.73596C152.602 2.0692 152.793 2.47452 152.851 2.93896C153.158 2.60421 153.505 2.29151 153.892 2.00146C154.374 1.63915 154.918 1.35245 155.52 1.14087L155.636 1.09802C156.221 0.889632 156.847 0.786743 157.513 0.786743ZM89.2674 13.1251C89.8961 13.1251 90.4243 13.3012 90.7991 13.6993C91.1976 14.0803 91.3733 14.6201 91.3733 15.2631V15.7787C91.3733 16.4244 91.1963 16.9697 90.8034 17.3684C90.427 17.7507 89.8967 17.9166 89.2674 17.9166H88.8792C88.2485 17.9166 87.714 17.7502 87.3205 17.3757L87.3059 17.3611C86.937 16.9616 86.7733 16.4189 86.7733 15.7787V15.2631C86.7733 14.6242 86.9366 14.0859 87.3132 13.7037C87.7059 13.3049 88.2431 13.1251 88.8792 13.1251H89.2674ZM142.031 17.746L142.024 17.7482L141.924 17.4457L142.031 17.746ZM106.156 17.338L106.15 17.3314L106.379 17.1124L106.156 17.338ZM162.54 17.2743L162.393 17.1241L162.381 17.1124L162.54 17.2743ZM33.9795 17.1787L33.9156 17.1135L33.9141 17.1124L33.9795 17.1787ZM41.4462 17.1787L41.3823 17.1135L41.3808 17.1124L41.4462 17.1787ZM82.981 17.1787L82.9171 17.1135L82.9156 17.1124L82.981 17.1787ZM26.5983 4.75977C25.7989 4.75977 25.1043 4.96656 24.5035 5.37317C23.897 5.78369 23.4156 6.34408 23.0602 7.06323L22.9992 7.1991C22.7036 7.88575 22.5529 8.66211 22.5529 9.53369C22.5529 10.4398 22.7233 11.2497 23.058 11.969C23.4136 12.6903 23.8957 13.2524 24.5035 13.6638C25.1043 14.0705 25.799 14.2772 26.5983 14.2772C27.4192 14.2772 28.1235 14.0697 28.7232 13.6638C29.3298 13.2533 29.8009 12.6927 30.1364 11.9738L30.4129 12.1067H30.4137L30.1364 11.9738L30.1393 11.9675C30.4935 11.2483 30.6737 10.4392 30.6738 9.53369C30.6738 8.66447 30.5149 7.89011 30.2036 7.20496L30.1393 7.06909L30.1364 7.06323L30.4159 6.92883L30.4202 6.92627L30.1364 7.06323C29.8009 6.34425 29.3298 5.78372 28.7232 5.37317C28.1235 4.96723 27.4192 4.75977 26.5983 4.75977ZM57.8008 4.75977C57.0015 4.75979 56.307 4.96655 55.706 5.37317C55.0995 5.78371 54.6181 6.34404 54.2627 7.06323L54.2017 7.1991C53.9063 7.88574 53.7557 8.66214 53.7557 9.53369C53.7557 10.4398 53.9259 11.2497 54.2606 11.969C54.6161 12.6903 55.0981 13.2524 55.706 13.6638C56.3069 14.0706 57.0015 14.2772 57.8008 14.2772C58.6219 14.2772 59.3262 14.0698 59.926 13.6638C60.5327 13.2533 61.0039 12.6927 61.3393 11.9738L61.3422 11.9675C61.6963 11.2483 61.8763 10.4392 61.8763 9.53369C61.8763 8.66449 61.7178 7.8901 61.4065 7.20496L61.3422 7.06909L61.3393 7.06323L61.6187 6.92883L61.6228 6.92627L61.3393 7.06323C61.0039 6.34427 60.5327 5.78371 59.926 5.37317C59.3262 4.96722 58.6219 4.75977 57.8008 4.75977ZM101.631 4.75977C100.831 4.75977 100.136 4.96653 99.5354 5.37317C98.929 5.78368 98.4478 6.34412 98.0926 7.06323L98.0316 7.1991C97.736 7.88576 97.5852 8.6621 97.5852 9.53369C97.5852 10.4398 97.7556 11.2497 98.0904 11.969C98.4458 12.6902 98.9277 13.2524 99.5354 13.6638C100.136 14.0706 100.831 14.2772 101.631 14.2772C102.452 14.2772 103.156 14.0697 103.756 13.6638C104.362 13.2533 104.833 12.6927 105.169 11.9738L105.172 11.9675C105.526 11.2483 105.706 10.4392 105.706 9.53369C105.706 8.66448 105.547 7.8901 105.236 7.20496L105.172 7.06909L105.169 7.06323L105.448 6.92883L105.453 6.92664L105.169 7.06323C104.833 6.34426 104.362 5.78372 103.756 5.37317C103.156 4.96723 102.452 4.75977 101.631 4.75977ZM120.385 4.75977C119.543 4.75977 118.817 4.96789 118.196 5.37537C117.569 5.78743 117.079 6.34949 116.724 7.06909C116.371 7.78724 116.19 8.60657 116.19 9.53369C116.19 10.4393 116.37 11.2487 116.724 11.9679C117.079 12.6873 117.569 13.2492 118.196 13.6613C118.817 14.0689 119.543 14.2772 120.385 14.2772C121.248 14.2772 121.984 14.068 122.603 13.6613C123.23 13.2492 123.721 12.6873 124.075 11.9679C124.429 11.2487 124.61 10.4393 124.61 9.53369C124.61 8.60657 124.429 7.78724 124.075 7.06909C123.721 6.34948 123.23 5.78742 122.603 5.37537C121.984 4.96858 121.248 4.75977 120.385 4.75977ZM191.804 12.9896L191.805 12.9893L191.781 12.9779L191.804 12.9896ZM138.429 4.75977C137.86 4.75977 137.335 4.83679 136.85 4.98828C136.381 5.13476 135.977 5.38064 135.636 5.72729C135.299 6.06934 135.022 6.53914 134.815 7.15149C134.785 7.23907 134.758 7.33062 134.733 7.42578H141.836C141.782 6.9599 141.603 6.53967 141.293 6.15942L141.288 6.1532C140.982 5.7568 140.596 5.43918 140.124 5.20105L140.029 5.15454L140.016 5.14868L140.156 4.87622L140.161 4.8645L140.016 5.14868C139.524 4.88977 138.997 4.75977 138.429 4.75977ZM175.898 5.11499L175.886 5.1084L176.048 4.83484L175.898 5.11499ZM48.4274 4.52832L48.4194 4.53564L48.2192 4.28845L48.4274 4.52832Z" fill="#1C1C1C" style="fill:#1C1C1C;fill:color(display-p3 0.1083 0.1083 0.1083);fill-opacity:1;"/>
</svg>
